<?xml version="1.0" encoding="UTF-8"?>
<svg width="72px" height="72px" viewBox="0 0 72 72" version="1.1" xmlns="http://www.w3.org/2000/svg" xmlns:xlink="http://www.w3.org/1999/xlink">
    <!-- Generator: Sketch 46.2 (44496) - http://www.bohemiancoding.com/sketch -->
    <title>Facebook</title>
    <desc>Created with Sketch.</desc>
    <defs>
        <filter x="-4.2%" y="-6.5%" width="105.8%" height="123.0%" filterUnits="objectBoundingBox" id="filter-1">
            <feOffset dx="-5" dy="5" in="SourceAlpha" result="shadowOffsetOuter1"></feOffset>
            <feGaussianBlur stdDeviation="3" in="shadowOffsetOuter1" result="shadowBlurOuter1"></feGaussianBlur>
            <feColorMatrix values="0 0 0 0 0   0 0 0 0 0   0 0 0 0 0  0 0 0 0.5 0" type="matrix" in="shadowBlurOuter1" result="shadowMatrixOuter1"></feColorMatrix>
            <feMerge>
                <feMergeNode in="shadowMatrixOuter1"></feMergeNode>
                <feMergeNode in="SourceGraphic"></feMergeNode>
            </feMerge>
        </filter>
    </defs>
    <g id="Arq-Gabriela-Rojas" stroke="none" stroke-width="1" fill="none" fill-rule="evenodd">
        <g id="Desktop-HD-Copy" transform="translate(-202.000000, -6264.000000)" fill-rule="nonzero" fill="#FFFFFF">
            <g id="Contacto" transform="translate(-7.000000, 5787.000000)">
                <g id="CONTACTO" transform="translate(7.000000, 0.000000)">
                    <g id="Facebook" filter="url(#filter-1)" transform="translate(190.000000, 458.000000)">
                        <g transform="translate(23.000000, 20.000000)" id="Layer_1">
                            <g>
                                <path d="M60,10.0006667 C60,4.746 55.256,0 50,0 L10,0 C4.744,0 0,4.746 0,10.0006667 L0,49.9993333 C0,55.254 4.744,60 10.0006667,60 L30,60 L30,37.3333333 L22.6666667,37.3333333 L22.6666667,27.3333333 L30,27.3333333 L30,23.4373333 C30,16.718 35.0453333,10.6666667 41.25,10.6666667 L49.3333333,10.6666667 L49.3333333,20.6666667 L41.25,20.6666667 C40.3653333,20.6666667 39.3333333,21.7406667 39.3333333,23.3493333 L39.3333333,27.3333333 L49.3333333,27.3333333 L49.3333333,37.3333333 L39.3333333,37.3333333 L39.3333333,60 L50,60 C55.256,60 60,55.254 60,49.9993333 L60,10.0006667 Z" id="Shape"></path>
                            </g>
                        </g>
                    </g>
                </g>
            </g>
        </g>
    </g>
</svg>