<?xml version="1.0" encoding="UTF-8"?>
<svg width="72px" height="72px" viewBox="0 0 72 72" version="1.1" xmlns="http://www.w3.org/2000/svg" xmlns:xlink="http://www.w3.org/1999/xlink">
    <!-- Generator: Sketch 46.2 (44496) - http://www.bohemiancoding.com/sketch -->
    <title>Whatsapp</title>
    <desc>Created with Sketch.</desc>
    <defs>
        <filter x="-4.2%" y="-6.5%" width="105.8%" height="123.0%" filterUnits="objectBoundingBox" id="filter-1">
            <feOffset dx="-5" dy="5" in="SourceAlpha" result="shadowOffsetOuter1"></feOffset>
            <feGaussianBlur stdDeviation="3" in="shadowOffsetOuter1" result="shadowBlurOuter1"></feGaussianBlur>
            <feColorMatrix values="0 0 0 0 0   0 0 0 0 0   0 0 0 0 0  0 0 0 0.5 0" type="matrix" in="shadowBlurOuter1" result="shadowMatrixOuter1"></feColorMatrix>
            <feMerge>
                <feMergeNode in="shadowMatrixOuter1"></feMergeNode>
                <feMergeNode in="SourceGraphic"></feMergeNode>
            </feMerge>
        </filter>
    </defs>
    <g id="Arq-Gabriela-Rojas" stroke="none" stroke-width="1" fill="none" fill-rule="evenodd">
        <g id="Desktop-HD-Copy" transform="translate(-202.000000, -6134.000000)" fill-rule="nonzero" fill="#FFFFFF">
            <g id="Contacto" transform="translate(-7.000000, 5787.000000)">
                <g id="CONTACTO" transform="translate(7.000000, 0.000000)">
                    <g id="Wpp" filter="url(#filter-1)" transform="translate(190.000000, 328.000000)">
                        <g id="Whatsapp" transform="translate(23.000000, 20.000000)">
                            <g id="Layer_1">
                                <path d="M60,29.3039342 C60,45.3397368 46.814,58.3389825 30.5453333,58.3389825 C25.5685746,58.3469493 20.6706554,57.1041544 16.3073333,54.7262412 L0,59.8741491 L5.31666667,44.2959825 C2.54562705,39.7803478 1.08302984,34.5924942 1.09,29.3039342 C1.09,13.2681316 14.2773333,0.268885965 30.546,0.268885965 C46.8153333,0.268885965 60,13.2681316 60,29.3039342 M30.5453333,4.89292982 C16.8893333,4.89292982 5.78133333,15.8437412 5.78133333,29.3039342 C5.78133333,34.6458904 7.534,39.5924649 10.4986667,43.6164825 L7.40466667,52.6817807 L16.9213333,49.6770132 C20.9675446,52.3179218 25.7046306,53.721846 30.546,53.7149386 C44.2,53.7149386 55.31,42.7654518 55.31,29.3045965 C55.3093333,15.8444035 44.2006667,4.89292982 30.5453333,4.89292982 M45.4193333,35.9909825 C45.2373333,35.694943 44.7566667,35.5161272 44.0353333,35.1604825 C43.3126667,34.8048377 39.762,33.0822456 39.102,32.8464737 C38.44,32.6087149 37.9573333,32.4895044 37.4766667,33.2014561 C36.996,33.9140702 35.612,35.5161272 35.19,35.9909825 C34.7686667,36.4671623 34.348,36.5267675 33.6253333,36.1704605 C32.904,35.8148158 30.578,35.0624649 27.82,32.6378553 C25.674,30.7523421 24.2246667,28.4231009 23.8033333,27.7104868 C23.3826667,26.9985351 23.7593333,26.61375 24.12,26.2594298 C24.4453333,25.9402105 24.8426667,25.4282675 25.2033333,25.0130175 C25.5653333,24.5971053 25.6853333,24.3010658 25.9246667,23.8255482 C26.1666667,23.350693 26.046,22.935443 25.8646667,22.5784737 C25.6846667,22.2228289 24.2393333,18.7206886 23.638,17.2961228 C23.0366667,15.871557 22.436,16.1086535 22.014,16.1086535 C21.5933333,16.1086535 21.1113333,16.0490482 20.63,16.0490482 C20.1486667,16.0490482 19.366,16.2272018 18.704,16.9391535 C18.0426667,17.6517675 16.178,19.3736974 16.178,22.8751754 C16.178,26.3773158 18.764,29.7609079 19.126,30.2357632 C19.4866667,30.7099561 24.1193333,38.1301491 31.4593333,40.979943 C38.8,43.82775 38.8,42.8773772 40.124,42.7581667 C41.4466667,42.6396184 44.3946667,41.0368991 44.9986667,39.3758991 C45.5986667,37.71225 45.5986667,36.2876842 45.4193333,35.9909825" id="Shape"></path>
                            </g>
                        </g>
                    </g>
                </g>
            </g>
        </g>
    </g>
</svg>