<?xml version="1.0" encoding="UTF-8"?>
<svg width="1920px" height="918px" viewBox="0 0 1920 918" version="1.1" xmlns="http://www.w3.org/2000/svg" xmlns:xlink="http://www.w3.org/1999/xlink">
    <!-- Generator: Sketch 46.2 (44496) - http://www.bohemiancoding.com/sketch -->
    <title>background copy</title>
    <desc>Created with Sketch.</desc>
    <defs>
        <filter x="-0.9%" y="-0.5%" width="101.6%" height="101.3%" filterUnits="objectBoundingBox" id="filter-1">
            <feOffset dx="-1" dy="1" in="SourceAlpha" result="shadowOffsetOuter1"></feOffset>
            <feGaussianBlur stdDeviation="2" in="shadowOffsetOuter1" result="shadowBlurOuter1"></feGaussianBlur>
            <feColorMatrix values="0 0 0 0 0   0 0 0 0 0   0 0 0 0 0  0 0 0 1 0" type="matrix" in="shadowBlurOuter1" result="shadowMatrixOuter1"></feColorMatrix>
            <feMerge>
                <feMergeNode in="shadowMatrixOuter1"></feMergeNode>
                <feMergeNode in="SourceGraphic"></feMergeNode>
            </feMerge>
        </filter>
    </defs>
    <g id="Arq-Gabriela-Rojas" stroke="none" stroke-width="1" fill="none" fill-rule="evenodd" stroke-dasharray="6">
        <g id="background-copy" stroke="#AFAFAF" stroke-width="0.5">
            <g id="logosvg" filter="url(#filter-1)" transform="translate(-2.000000, -145.000000)">
                <path d="M221.166667,322.495783 L221.166667,1063.51411" id="Shape"></path>
                <path d="M223.498979,321.498979 L965.65261,1063.65261" id="Shape"></path>
                <path d="M176.439177,720.587435 C345.714453,720.587435 482.939177,583.362711 482.939177,414.087435 C482.939177,265.981107 377.89003,142.410323 238.236602,113.819948" id="Oval-Copy" fill-rule="nonzero" transform="translate(329.689177, 417.203692) rotate(49.000000) translate(-329.689177, -417.203692) "></path>
                <path d="M167.773813,857.647155 C186.653171,857.647155 205.266599,856.508572 223.549176,854.296326 C451.01956,826.771738 627.273813,633.04264 627.273813,398.147155 C627.273813,265.484911 571.054575,145.953373 481.140875,62.077316" id="Oval-Copy" fill-rule="nonzero" transform="translate(397.523813, 459.862236) rotate(29.000000) translate(-397.523813, -459.862236) "></path>
            </g>
        </g>
    </g>
</svg>