<svg xmlns="http://www.w3.org/2000/svg" xmlns:xlink="http://www.w3.org/1999/xlink" viewBox="0 0 660.99 339"><defs><style>.cls-1{font-size:22.75px;font-family:SolPro-Light, Sol Pro;}.cls-2{fill:url(#Degradado_sin_nombre_596);}.cls-3{fill:url(#Degradado_sin_nombre_596-2);}.cls-4{fill:url(#Degradado_sin_nombre_596-3);}.cls-5{fill:url(#Degradado_sin_nombre_596-4);}.cls-6{fill:url(#Degradado_sin_nombre_579);}.cls-7{fill:url(#Degradado_sin_nombre_4);}.cls-8{fill:url(#Degradado_sin_nombre_570);}.cls-10,.cls-9{fill:none;stroke:#000;stroke-miterlimit:10;stroke-width:1.5px;}.cls-10{stroke-dasharray:5.09 5.09;}.cls-11{fill:url(#Degradado_sin_nombre_510);}.cls-12{fill:url(#Degradado_sin_nombre_562);}.cls-13{fill:url(#Degradado_sin_nombre_353);}</style><radialGradient id="Degradado_sin_nombre_596" cx="393.91" cy="126.89" r="24.76" gradientUnits="userSpaceOnUse"><stop offset="0" stop-color="#fff"/><stop offset="0" stop-color="#f6f6f6"/><stop offset="0" stop-color="#969696"/><stop offset="0" stop-color="#a0a0a0"/><stop offset="0" stop-color="#ededed"/><stop offset="0" stop-color="#f6f6f6"/><stop offset="0"/><stop offset="0" stop-color="#fff"/><stop offset="0" stop-color="#a5a5a5"/><stop offset="0" stop-color="#8b8b8b"/><stop offset="1"/></radialGradient><radialGradient id="Degradado_sin_nombre_596-2" cx="441.91" cy="126.44" r="27.46" xlink:href="#Degradado_sin_nombre_596"/><radialGradient id="Degradado_sin_nombre_596-3" cx="548.15" cy="126.89" r="26" xlink:href="#Degradado_sin_nombre_596"/><radialGradient id="Degradado_sin_nombre_596-4" cx="600.01" cy="126.89" r="25.66" xlink:href="#Degradado_sin_nombre_596"/><radialGradient id="Degradado_sin_nombre_579" cx="497.29" cy="120.71" r="22.25" gradientUnits="userSpaceOnUse"><stop offset="0" stop-color="#fff"/><stop offset="0" stop-color="#f6f6f6"/><stop offset="0" stop-color="#969696"/><stop offset="0" stop-color="#a0a0a0"/><stop offset="0" stop-color="#ededed"/><stop offset="0" stop-color="#f6f6f6"/><stop offset="0" stop-color="#ff7f00"/><stop offset="0.48" stop-color="#fc7706"/><stop offset="1" stop-color="#e5472c"/></radialGradient><radialGradient id="Degradado_sin_nombre_4" cx="499.61" cy="175.12" r="138.44" gradientUnits="userSpaceOnUse"><stop offset="0.57" stop-color="#ff7f00"/><stop offset="0.65" stop-color="#f66b10"/><stop offset="0.77" stop-color="#ec5720"/><stop offset="0.88" stop-color="#e74b29"/><stop offset="1" stop-color="#e5472c"/><stop offset="1" stop-color="#ea5629"/><stop offset="1" stop-color="#f37124"/><stop offset="1" stop-color="#fa8421"/><stop offset="1" stop-color="#fe8f1f"/><stop offset="1" stop-color="#ff931e"/></radialGradient><radialGradient id="Degradado_sin_nombre_570" cx="184.55" cy="153.14" r="71.99" gradientUnits="userSpaceOnUse"><stop offset="0" stop-color="#fff"/><stop offset="0" stop-color="#f6f6f6"/><stop offset="0" stop-color="#969696"/><stop offset="0" stop-color="#a0a0a0"/><stop offset="0" stop-color="#ededed"/><stop offset="0" stop-color="#f6f6f6"/><stop offset="0" stop-color="#ff7f00"/><stop offset="1" stop-color="#e5472c"/></radialGradient><radialGradient id="Degradado_sin_nombre_510" cx="137.43" cy="225.04" r="70.92" gradientUnits="userSpaceOnUse"><stop offset="0" stop-color="#fff"/><stop offset="0.88"/></radialGradient><radialGradient id="Degradado_sin_nombre_562" cx="267.42" cy="132.36" r="79.48" gradientUnits="userSpaceOnUse"><stop offset="0" stop-color="#fff"/><stop offset="0" stop-color="#f6f6f6"/><stop offset="0" stop-color="#969696"/><stop offset="0" stop-color="#a0a0a0"/><stop offset="0" stop-color="#ededed"/><stop offset="0" stop-color="#f6f6f6"/><stop offset="0.3" stop-color="#707070"/><stop offset="0.96"/></radialGradient><radialGradient id="Degradado_sin_nombre_353" cx="140.25" cy="148.72" fx="150.22585275053098" r="134.33" gradientUnits="userSpaceOnUse"><stop offset="0.62" stop-color="#fff"/><stop offset="0.95"/></radialGradient></defs><title>logosvg_3</title><g id="Capa_2" data-name="Capa 2"><g id="Capa_1-2" data-name="Capa 1"><text class="cls-1" transform="translate(346.48 218.77) scale(1.19 1)">Arquitectura - Construccion</text><text class="cls-1" transform="translate(438.1 247.57) scale(1.19 1)">y Servicios</text><path class="cls-2" d="M389.68,107.66c-3.42,0-5.27,1.71-5.27,5.64v27.1c0,4.08,1.86,5.72,5.27,5.72h23.91v9.73H386.41c-7.13,0-12.18-3.56-12.18-11V109.37c0-7.43,5-11.44,12.18-11.44h27.18v9.73Z"/><path class="cls-3" d="M416.56,155.85l17.9-52.5C436.09,98.6,438.91,97,442,97s6.24,1.56,7.8,6.31l17.45,52.5H456.73l-4.16-11.58H431.26l-4.16,11.58ZM442,112.34l-7.8,22.2h15.52Z"/><path class="cls-4" d="M537.23,133.35a6.8,6.8,0,0,1-1.56-2.23v24.73H525.5V97.93h31.56c7.2,0,12.18,4,12.18,11.44v12c0,8.39-2.82,12.7-14,12.7h-5l20.57,21.83H558.32Zm-1.56-6.91a5.75,5.75,0,0,1,4.9-2.23h13.22c3.42,0,5.35-1.71,5.35-5.64V113.3c0-3.94-1.93-5.64-5.35-5.64H535.67Z"/><path class="cls-5" d="M621.88,144.86c0,7.43-5,11-12.18,11H590.32c-7.13,0-12.18-4-12.18-11.44v-35c0-7.43,5-11.44,12.18-11.44H609.7c7.2,0,12.18,4,12.18,11.44Zm-33.56-4.46c0,4.08,1.86,5.72,5.72,5.72h12.4c3.42,0,5.35-1.63,5.35-5.72V113.3c0-3.94-1.93-5.64-5.35-5.64H594c-3.86,0-5.72,1.71-5.72,5.64Z"/><path class="cls-6" d="M490.29,96.44h6.47c6.29,0,9.15,3.49,9.15,9.77v2.3c0,8.84-4.92,9.71-11.89,12.95l14.82,14.94a11.2,11.2,0,0,0,.44-2.93V122.58h4v7.53c0,3.67-.13,7.41-1.18,9.59l5.17,5.29H512l-2.37-2.37c-2.18,2.3-5.29,2.37-9.84,2.37H486.37c-6.29,0-9.09-3.61-9.09-9.65v-3.42c0-7.1,3.86-8.53,10.4-11.33l-.56-.56c-3.36-3.36-6-6-6-12C481.14,100.79,483.13,96.44,490.29,96.44Zm-4.11,28.76c-3.11,1.49-4.67,2.37-4.67,6.72,0,5.6.31,9.28,5.73,9.28h13.57c2.62,0,4.61-.44,5.73-1.68L490.41,123.2Zm4.92-24.78c-4.92,0-5.85,2.37-5.85,7.72,0,5.79,2.68,7.16,6,10.64l7.6-3.61c2.55-1.24,2.93-3.55,2.93-7.16,0-5.54-.69-7.6-5.79-7.6Z"/><polygon class="cls-7" points="369.1 175.39 636.12 175.39 630.88 168.85 375.65 168.85 369.1 175.39"/><polygon points="369.1 184.55 636.12 184.55 630.88 178.01 375.65 178.01 369.1 184.55"/><circle class="cls-8" cx="184.55" cy="153.14" r="71.99"/><line class="cls-9" x1="184.55" y1="155.76" x2="184.55" y2="158.26"/><line class="cls-10" x1="184.55" y1="163.35" x2="184.55" y2="333.95"/><line class="cls-9" x1="184.55" y1="336.5" x2="184.55" y2="339"/><line class="cls-9" x1="183.9" y1="156.41" x2="185.67" y2="158.18"/><line class="cls-10" x1="189.27" y1="161.78" x2="309.91" y2="282.42"/><line class="cls-9" x1="311.71" y1="284.22" x2="313.47" y2="285.99"/><path class="cls-11" d="M184.55,269.63A115.19,115.19,0,0,1,69.72,163.43,117.89,117.89,0,0,0,184.55,307.59Z"/><path class="cls-12" d="M265.8,75.33a115.19,115.19,0,0,1,4.68,156.35A117.89,117.89,0,0,0,292.88,48.74Z"/><path class="cls-13" d="M49.69,292.2,76.89,265C48.7,236.86,31.41,198.87,31.41,157.07,31.41,75.2,96.86,2.62,182.33.67,177.45.24,172.52,0,167.54,0,75,0,0,76.47,0,170.81A171.94,171.94,0,0,0,49.69,292.2Z"/></g></g></svg>