<?xml version="1.0" encoding="UTF-8"?>
<svg width="637px" height="339px" viewBox="0 0 637 339" version="1.1" xmlns="http://www.w3.org/2000/svg" xmlns:xlink="http://www.w3.org/1999/xlink">
    <!-- Generator: Sketch 46.2 (44496) - http://www.bohemiancoding.com/sketch -->
    <title>logosvg</title>
    <desc>Created with Sketch.</desc>
    <defs></defs>
    <g id="Arq-Gabriela-Rojas" stroke="none" stroke-width="1" fill="none" fill-rule="evenodd">
        <g id="Desktop-HD" transform="translate(-329.000000, -208.000000)">
            <g id="logosvg" transform="translate(328.000000, 208.000000)">
                <text id="Arquitectura---Const" fill="#FFFFFF" font-family="SolPro-Regular, Sol Pro" font-size="22.75" font-weight="normal">
                    <tspan x="347.48" y="218.77">Arquitectura - Construccion</tspan>
                </text>
                <text id="y-Servicios" fill="#FFFFFF" font-family="SolPro-Regular, Sol Pro" font-size="22.75" font-weight="normal">
                    <tspan x="439.1" y="247.57">y Servicios</tspan>
                </text>
                <path d="M390.68,107.66 C387.26,107.66 385.41,109.37 385.41,113.3 L385.41,140.4 C385.41,144.48 387.27,146.12 390.68,146.12 L414.59,146.12 L414.59,155.85 L387.41,155.85 C380.28,155.85 375.23,152.29 375.23,144.85 L375.23,109.37 C375.23,101.94 380.23,97.93 387.41,97.93 L414.59,97.93 L414.59,107.66 L390.68,107.66 Z" id="Shape" fill="#FFFFFF" fill-rule="nonzero"></path>
                <path d="M417.56,155.85 L435.46,103.35 C437.09,98.6 439.91,97 443,97 C446.09,97 449.24,98.56 450.8,103.31 L468.25,155.81 L457.73,155.81 L453.57,144.23 L432.26,144.23 L428.1,155.81 L417.56,155.85 Z M443,112.34 L435.2,134.54 L450.72,134.54 L443,112.34 Z" id="Shape" fill="#FFFFFF" fill-rule="nonzero"></path>
                <path d="M538.23,133.35 C537.565045,132.719381 537.03442,131.960859 536.67,131.12 L536.67,155.85 L526.5,155.85 L526.5,97.93 L558.06,97.93 C565.26,97.93 570.24,101.93 570.24,109.37 L570.24,121.37 C570.24,129.76 567.42,134.07 556.24,134.07 L551.24,134.07 L571.81,155.9 L559.32,155.9 L538.23,133.35 Z M536.67,126.44 C537.832975,124.930728 539.668075,124.09557 541.57,124.21 L554.79,124.21 C558.21,124.21 560.14,122.5 560.14,118.57 L560.14,113.3 C560.14,109.36 558.21,107.66 554.79,107.66 L536.67,107.66 L536.67,126.44 Z" id="Shape" fill="#FFFFFF" fill-rule="nonzero"></path>
                <path d="M622.88,144.86 C622.88,152.29 617.88,155.86 610.7,155.86 L591.32,155.86 C584.19,155.86 579.14,151.86 579.14,144.42 L579.14,109.42 C579.14,101.99 584.14,97.98 591.32,97.98 L610.7,97.98 C617.9,97.98 622.88,101.98 622.88,109.42 L622.88,144.86 Z M589.32,140.4 C589.32,144.48 591.18,146.12 595.04,146.12 L607.44,146.12 C610.86,146.12 612.79,144.49 612.79,140.4 L612.79,113.3 C612.79,109.36 610.86,107.66 607.44,107.66 L595,107.66 C591.14,107.66 589.28,109.37 589.28,113.3 L589.32,140.4 Z" id="Shape" fill="#FFFFFF" fill-rule="nonzero"></path>
                <path d="M491.29,96.44 L497.76,96.44 C504.05,96.44 506.91,99.93 506.91,106.21 L506.91,108.51 C506.91,117.35 501.99,118.22 495.02,121.46 L509.84,136.4 C510.115773,135.447128 510.263734,134.461842 510.28,133.47 L510.28,122.58 L514.28,122.58 L514.28,130.11 C514.28,133.78 514.15,137.52 513.1,139.7 L518.27,144.99 L513,144.99 L510.63,142.62 C508.45,144.92 505.34,144.99 500.79,144.99 L487.37,144.99 C481.08,144.99 478.28,141.38 478.28,135.34 L478.28,131.92 C478.28,124.82 482.14,123.39 488.68,120.59 L488.12,120.03 C484.76,116.67 482.12,114.03 482.12,108.03 C482.14,100.79 484.13,96.44 491.29,96.44 Z M487.18,125.2 C484.07,126.69 482.51,127.57 482.51,131.92 C482.51,137.52 482.82,141.2 488.24,141.2 L501.81,141.2 C504.43,141.2 506.42,140.76 507.54,139.52 L491.41,123.2 L487.18,125.2 Z M492.1,100.42 C487.18,100.42 486.25,102.79 486.25,108.14 C486.25,113.93 488.93,115.3 492.25,118.78 L499.85,115.17 C502.4,113.93 502.78,111.62 502.78,108.01 C502.78,102.47 502.09,100.41 496.99,100.41 L492.1,100.42 Z" id="Shape" fill="#FFFFFF" fill-rule="nonzero"></path>
                <polygon id="Shape" fill="#FFFFFF" fill-rule="nonzero" points="370.1 175.39 637.12 175.39 631.88 168.85 376.65 168.85"></polygon>
                <polygon id="Shape" fill="#FFFFFF" fill-rule="nonzero" points="370.1 184.55 637.12 184.55 631.88 178.01 376.65 178.01"></polygon>
                <circle id="Oval" fill="#FFFFFF" fill-rule="nonzero" cx="185.55" cy="153.14" r="71.99"></circle>
                <path d="M185.55,155.76 L185.55,158.26" id="Shape" stroke="#FFFFFF" stroke-width="1.5"></path>
                <path d="M185.55,163.35 L185.55,333.95" id="Shape" stroke="#FFFFFF" stroke-width="1.5" stroke-dasharray="5.09"></path>
                <path d="M185.55,336.5 L185.55,339" id="Shape" stroke="#FFFFFF" stroke-width="1.5"></path>
                <path d="M184.9,156.41 L186.67,158.18" id="Shape" stroke="#FFFFFF" stroke-width="1.5"></path>
                <path d="M190.27,161.78 L310.91,282.42" id="Shape" stroke="#FFFFFF" stroke-width="1.5" stroke-dasharray="5.09"></path>
                <path d="M312.71,284.22 L314.47,285.99" id="Shape" stroke="#FFFFFF" stroke-width="1.5"></path>
                <path d="M185.55,269.63 C125.422269,269.625484 75.4126667,223.374332 70.72,163.43 C62.7276381,198.39487 71.087378,235.096541 93.4339828,263.150939 C115.780588,291.205337 149.683314,307.560857 185.55,307.59 L185.55,269.63 Z" id="Shape" fill="#FFFFFF" fill-rule="nonzero"></path>
                <path d="M266.8,75.33 C308.930479,118.236195 310.968742,186.330709 271.48,231.68 C302.027868,212.883994 322.357425,181.20344 326.716621,145.602043 C331.075817,110.000645 318.990466,74.3510638 293.88,48.74 L266.8,75.33 Z" id="Shape" fill="#FFFFFF" fill-rule="nonzero"></path>
                <path d="M50.69,292.2 L77.89,265 C49.7,236.86 32.41,198.87 32.41,157.07 C32.41,75.2 97.86,2.62 183.33,0.67 C178.45,0.24 173.52,0 168.54,0 C76,0 1,76.47 1,170.81 C0.872315227,216.249643 18.7370751,259.892291 50.69,292.2 L50.69,292.2 Z" id="Shape" fill="#FFFFFF" fill-rule="nonzero"></path>
            </g>
        </g>
    </g>
</svg>