<svg xmlns="http://www.w3.org/2000/svg" xmlns:xlink="http://www.w3.org/1999/xlink" viewBox="0 0 505 259"><defs><style>.cls-1{font-size:17.39px;font-family:SolPro-Light, Sol Pro;}.cls-2{fill:url(#Degradado_sin_nombre_596);}.cls-3{fill:url(#Degradado_sin_nombre_596-2);}.cls-4{fill:url(#Degradado_sin_nombre_596-3);}.cls-5{fill:url(#Degradado_sin_nombre_596-4);}.cls-6{fill:url(#Degradado_sin_nombre_579);}.cls-7{fill:url(#Degradado_sin_nombre_606);}.cls-8{fill:url(#Degradado_sin_nombre_570);}.cls-10,.cls-9{fill:none;stroke:#000;stroke-miterlimit:10;stroke-width:1.5px;}.cls-10{stroke-dasharray:5 5;}.cls-11{fill:url(#Degradado_sin_nombre_510);}.cls-12{fill:url(#Degradado_sin_nombre_562);}.cls-13{fill:url(#Degradado_sin_nombre_353);}</style><radialGradient id="Degradado_sin_nombre_596" cx="300.95" cy="96.95" r="18.91" gradientUnits="userSpaceOnUse"><stop offset="0" stop-color="#fff"/><stop offset="0" stop-color="#f6f6f6"/><stop offset="0" stop-color="#969696"/><stop offset="0" stop-color="#a0a0a0"/><stop offset="0" stop-color="#ededed"/><stop offset="0" stop-color="#f6f6f6"/><stop offset="0"/><stop offset="0" stop-color="#fff"/><stop offset="0" stop-color="#a5a5a5"/><stop offset="0" stop-color="#8b8b8b"/><stop offset="1"/></radialGradient><radialGradient id="Degradado_sin_nombre_596-2" cx="337.63" cy="96.61" r="20.98" xlink:href="#Degradado_sin_nombre_596"/><radialGradient id="Degradado_sin_nombre_596-3" cx="418.79" cy="96.95" r="19.86" xlink:href="#Degradado_sin_nombre_596"/><radialGradient id="Degradado_sin_nombre_596-4" cx="458.41" cy="96.95" r="19.6" xlink:href="#Degradado_sin_nombre_596"/><radialGradient id="Degradado_sin_nombre_579" cx="379.94" cy="92.23" r="17" gradientUnits="userSpaceOnUse"><stop offset="0" stop-color="#fff"/><stop offset="0" stop-color="#f6f6f6"/><stop offset="0" stop-color="#969696"/><stop offset="0" stop-color="#a0a0a0"/><stop offset="0" stop-color="#ededed"/><stop offset="0" stop-color="#f6f6f6"/><stop offset="0" stop-color="#ff7f00"/><stop offset="0.48" stop-color="#fc7706"/><stop offset="1" stop-color="#e5472c"/></radialGradient><radialGradient id="Degradado_sin_nombre_606" cx="384" cy="131.5" r="72.15" gradientUnits="userSpaceOnUse"><stop offset="0.41" stop-color="#ff7f00"/><stop offset="0.53" stop-color="#f66b10"/><stop offset="0.68" stop-color="#ec5720"/><stop offset="0.84" stop-color="#e74b29"/><stop offset="1" stop-color="#e5472c"/><stop offset="1" stop-color="#ea5629"/><stop offset="1" stop-color="#f37124"/><stop offset="1" stop-color="#fa8421"/><stop offset="1" stop-color="#fe8f1f"/><stop offset="1" stop-color="#ff931e"/></radialGradient><radialGradient id="Degradado_sin_nombre_570" cx="141" cy="117" r="55" gradientUnits="userSpaceOnUse"><stop offset="0" stop-color="#fff"/><stop offset="0" stop-color="#f6f6f6"/><stop offset="0" stop-color="#969696"/><stop offset="0" stop-color="#a0a0a0"/><stop offset="0" stop-color="#ededed"/><stop offset="0" stop-color="#f6f6f6"/><stop offset="0" stop-color="#ff7f00"/><stop offset="1" stop-color="#e5472c"/></radialGradient><radialGradient id="Degradado_sin_nombre_510" cx="105" cy="171.93" r="54.18" gradientUnits="userSpaceOnUse"><stop offset="0" stop-color="#fff"/><stop offset="0.88"/></radialGradient><radialGradient id="Degradado_sin_nombre_562" cx="204.31" cy="101.12" r="60.73" gradientUnits="userSpaceOnUse"><stop offset="0" stop-color="#fff"/><stop offset="0" stop-color="#f6f6f6"/><stop offset="0" stop-color="#969696"/><stop offset="0" stop-color="#a0a0a0"/><stop offset="0" stop-color="#ededed"/><stop offset="0" stop-color="#f6f6f6"/><stop offset="0.3" stop-color="#707070"/><stop offset="0.96"/></radialGradient><radialGradient id="Degradado_sin_nombre_353" cx="107.15" cy="113.62" fx="114.77432407783945" r="102.63" gradientUnits="userSpaceOnUse"><stop offset="0.62" stop-color="#fff"/><stop offset="0.95"/></radialGradient></defs><title>logosvg</title><g id="Capa_2" data-name="Capa 2"><g id="Capa_1-2" data-name="Capa 1"><text class="cls-1" transform="translate(264.71 167.14) scale(1.19 1)">Arquitectura - Construccion</text><text class="cls-1" transform="translate(334.71 189.14) scale(1.19 1)">y Servicios</text><path class="cls-2" d="M297.72,82.25c-2.61,0-4,1.31-4,4.31v20.71c0,3.12,1.42,4.37,4,4.37H316v7.43H295.22c-5.45,0-9.3-2.72-9.3-8.4V83.56c0-5.67,3.86-8.74,9.3-8.74H316v7.43Z"/><path class="cls-3" d="M318.25,119.07,331.93,79c1.25-3.63,3.4-4.82,5.79-4.82s4.77,1.19,6,4.82L357,119.07h-8.06l-3.18-8.85H329.49l-3.18,8.85Zm19.4-33.25-6,17h11.86Z"/><path class="cls-4" d="M410.45,101.88a5.2,5.2,0,0,1-1.19-1.7v18.89h-7.77V74.82H425.6c5.5,0,9.3,3.06,9.3,8.74v9.13c0,6.41-2.16,9.7-10.72,9.7h-3.8l15.71,16.68h-9.53Zm-1.19-5.28A4.39,4.39,0,0,1,413,94.9h10.1c2.61,0,4.08-1.3,4.08-4.31v-4c0-3-1.47-4.31-4.08-4.31H409.26Z"/><path class="cls-5" d="M475.12,110.67c0,5.67-3.8,8.4-9.3,8.4H451c-5.45,0-9.3-3.06-9.3-8.74V83.56c0-5.67,3.86-8.74,9.3-8.74h14.81c5.5,0,9.3,3.06,9.3,8.74Zm-25.64-3.4c0,3.12,1.42,4.37,4.37,4.37h9.47c2.61,0,4.08-1.25,4.08-4.37V86.56c0-3-1.47-4.31-4.08-4.31h-9.47c-3,0-4.37,1.31-4.37,4.31Z"/><path class="cls-6" d="M374.59,73.68h4.95c4.8,0,7,2.66,7,7.47v1.76c0,6.75-3.76,7.42-9.08,9.89l11.32,11.42a8.56,8.56,0,0,0,.33-2.24V93.65h3.09v5.75c0,2.81-.1,5.66-.9,7.32l3.95,4h-4L389.38,109c-1.66,1.76-4,1.81-7.51,1.81H371.59c-4.8,0-6.94-2.76-6.94-7.37v-2.62c0-5.42,2.95-6.52,7.94-8.66l-.43-.43c-2.57-2.57-4.57-4.61-4.57-9.13C367.59,77,369.12,73.68,374.59,73.68Zm-3.14,22c-2.38,1.14-3.57,1.81-3.57,5.14,0,4.28.24,7.09,4.38,7.09h10.37c2,0,3.52-.33,4.38-1.28L374.68,94.13Zm3.76-18.93c-3.76,0-4.47,1.81-4.47,5.9,0,4.42,2,5.47,4.61,8.13l5.8-2.76c1.95-1,2.24-2.71,2.24-5.47,0-4.23-.52-5.8-4.42-5.8Z"/><polygon class="cls-7" points="282 134 486 134 482 129 287 129 282 134"/><polygon points="282 141 486 141 482 136 287 136 282 141"/><circle class="cls-8" cx="141" cy="117" r="55"/><line class="cls-9" x1="141" y1="119" x2="141" y2="121.5"/><line class="cls-10" x1="141" y1="126.5" x2="141" y2="254"/><line class="cls-9" x1="141" y1="256.5" x2="141" y2="259"/><line class="cls-9" x1="140.5" y1="119.5" x2="142.27" y2="121.27"/><line class="cls-10" x1="145.81" y1="124.81" x2="235.96" y2="214.96"/><line class="cls-9" x1="237.73" y1="216.73" x2="239.5" y2="218.5"/><path class="cls-11" d="M141,206a88,88,0,0,1-87.74-81.14A90.07,90.07,0,0,0,141,235Z"/><path class="cls-12" d="M203.07,57.56A88,88,0,0,1,206.65,177,90.07,90.07,0,0,0,223.77,37.24Z"/><path class="cls-13" d="M38,223.25l20.78-20.78C37.21,181,24,151.94,24,120,24,57.45,74,2,139.3.51,135.57.18,131.81,0,128,0,57.31,0,0,58.43,0,130.5A131.36,131.36,0,0,0,38,223.25Z"/></g></g></svg>