<?xml version="1.0" encoding="UTF-8"?>
<svg width="324px" height="172px" viewBox="0 0 324 172" version="1.1" xmlns="http://www.w3.org/2000/svg" xmlns:xlink="http://www.w3.org/1999/xlink">
    <!-- Generator: Sketch 46.2 (44496) - http://www.bohemiancoding.com/sketch -->
    <title>logosvg</title>
    <desc>Created with Sketch.</desc>
    <defs>
        <linearGradient x1="53.9257813%" y1="100%" x2="53.9257824%" y2="-13.264974%" id="linearGradient-1">
            <stop stop-color="#000000" offset="0%"></stop>
            <stop stop-color="#505050" offset="100%"></stop>
        </linearGradient>
        <linearGradient x1="22.3111979%" y1="92.9179152%" x2="70.4492188%" y2="37.8558433%" id="linearGradient-2">
            <stop stop-color="#000000" offset="0%"></stop>
            <stop stop-color="#505050" offset="100%"></stop>
        </linearGradient>
        <radialGradient cx="50%" cy="50%" fx="50%" fy="50%" r="74.8871688%" gradientTransform="translate(0.500000,0.500000),scale(1.000000,0.800000),rotate(-9.085617),translate(-0.500000,-0.500000)" id="radialGradient-3">
            <stop stop-color="#F6F6F6" offset="0%"></stop>
            <stop stop-color="#FF7F00" offset="0%"></stop>
            <stop stop-color="#E5472C" offset="100%"></stop>
        </radialGradient>
        <radialGradient cx="50%" cy="50%" fx="50%" fy="50%" r="74.8871688%" gradientTransform="translate(0.500000,0.500000),scale(0.022059,1.000000),rotate(-0.161692),translate(-0.500000,-0.500000)" id="radialGradient-4">
            <stop stop-color="#F6F6F6" offset="0%"></stop>
            <stop stop-color="#FF7F00" offset="0%"></stop>
            <stop stop-color="#E5472C" offset="100%"></stop>
        </radialGradient>
        <radialGradient cx="50%" cy="50%" fx="50%" fy="50%" r="50%" id="radialGradient-5">
            <stop stop-color="#F6F6F6" offset="0%"></stop>
            <stop stop-color="#FF7F00" offset="0%"></stop>
            <stop stop-color="#E5472C" offset="100%"></stop>
        </radialGradient>
        <radialGradient cx="50%" cy="50%" fx="50%" fy="50%" r="74.8871688%" gradientTransform="translate(0.500000,0.500000),scale(1.000000,0.333333),rotate(-20.996794),translate(-0.500000,-0.500000)" id="radialGradient-6">
            <stop stop-color="#F6F6F6" offset="0%"></stop>
            <stop stop-color="#FF7F00" offset="0%"></stop>
            <stop stop-color="#E5472C" offset="100%"></stop>
        </radialGradient>
        <linearGradient x1="-13.5143649%" y1="53.1883446%" x2="83.7701613%" y2="53.1883419%" id="linearGradient-7">
            <stop stop-color="#000000" offset="0%"></stop>
            <stop stop-color="#505050" offset="100%"></stop>
        </linearGradient>
    </defs>
    <g id="Arq-Gabriela-Rojas" stroke="none" stroke-width="1" fill="none" fill-rule="evenodd">
        <g id="Desktop-HD" transform="translate(-66.000000, -30.000000)">
            <g id="Group-4" transform="translate(-243.000000, -4.000000)">
                <g id="Header" transform="translate(243.000000, 4.000000)">
                    <g id="logosvg" transform="translate(66.000000, 30.000000)">
                        <path d="M184.798941,111.409225 L184,111.409225 L187.276817,102.506379 C187.404185,102.141315 187.601026,102 187.844182,102 C188.087338,102 188.284178,102.141315 188.411546,102.506379 L191.665206,111.409225 L190.866264,111.409225 L189.974692,109.042198 L185.690514,109.042198 L184.798941,111.409225 Z M189.731536,108.300294 L187.832603,103.236506 L185.93367,108.300294 L189.731536,108.300294 Z M193.04309,106.439647 C193.04309,105.57998 193.529402,105.309127 194.339922,105.309127 L194.837813,105.309127 L194.837813,104.578999 L194.15466,104.578999 C193.054669,104.578999 192.302043,105.073602 192.302043,106.274779 L192.302043,111.409225 L193.04309,111.409225 L193.04309,106.439647 Z M200.36093,111.409225 L197.269374,111.409225 C196.169382,111.409225 195.416756,110.938175 195.416756,109.736997 L195.416756,106.274779 C195.416756,105.073602 196.169382,104.578999 197.269374,104.578999 L199.249359,104.578999 C200.349351,104.578999 201.101977,105.073602 201.101977,106.274779 L201.101977,114 L200.36093,114 L200.36093,111.409225 Z M200.36093,110.690873 L200.36093,106.439647 C200.36093,105.57998 199.863039,105.29735 199.064097,105.29735 L197.431478,105.29735 C196.655694,105.29735 196.157803,105.57998 196.157803,106.439647 L196.157803,109.548577 C196.157803,110.467125 196.70201,110.690873 197.500951,110.690873 L200.36093,110.690873 Z M203.116698,104.578999 L202.375651,104.578999 L202.375651,109.713445 C202.375651,110.914622 203.128277,111.409225 204.228269,111.409225 L206.266148,111.409225 C207.36614,111.409225 208.118766,110.914622 208.118766,109.713445 L208.118766,104.578999 L207.377719,104.578999 L207.377719,109.548577 C207.377719,110.42002 206.879828,110.690873 206.104044,110.690873 L204.413531,110.690873 C203.603011,110.690873 203.116698,110.42002 203.116698,109.548577 L203.116698,104.578999 Z M210.260855,104.578999 L209.519808,104.578999 L209.519808,111.409225 L210.260855,111.409225 L210.260855,104.578999 Z M209.450335,103.625123 C209.450335,103.872424 209.647176,104.07262 209.890332,104.07262 C210.133488,104.07262 210.330328,103.872424 210.330328,103.625123 C210.330328,103.377821 210.133488,103.177625 209.890332,103.177625 C209.647176,103.177625 209.450335,103.377821 209.450335,103.625123 Z M211.719792,102.223749 L211.719792,111.409225 L212.460839,111.409225 L212.460839,105.29735 L214.313456,105.29735 L214.313456,104.578999 L212.460839,104.578999 L212.460839,102.223749 L211.719792,102.223749 Z M220.589199,110.690873 L220.589199,111.409225 L216.733438,111.409225 C215.633446,111.409225 214.892399,110.914622 214.892399,109.701668 L214.892399,106.251227 C214.892399,105.050049 215.645025,104.578999 216.745017,104.578999 L218.817633,104.578999 C219.917625,104.578999 220.658672,105.061825 220.658672,106.263003 L220.658672,107.134446 L215.645025,109.159961 C215.645025,110.372915 215.911339,110.690873 216.976594,110.690873 L220.589199,110.690873 Z M215.633446,106.474975 L215.633446,108.406281 L219.906046,106.675172 L219.906046,106.368989 C219.906046,105.544652 219.477628,105.309127 218.586056,105.309127 L216.953436,105.309127 C216.073443,105.309127 215.633446,105.615309 215.633446,106.474975 Z M226.332313,111.409225 L226.332313,110.690873 L223.715491,110.690873 C222.928128,110.690873 222.441816,110.42002 222.441816,109.548577 L222.441816,106.439647 C222.441816,105.57998 222.928128,105.309127 223.715491,105.309127 L226.332313,105.309127 L226.332313,104.578999 L223.553387,104.578999 C222.453395,104.578999 221.700769,105.050049 221.700769,106.251227 L221.700769,109.713445 C221.700769,110.914622 222.453395,111.409225 223.553387,111.409225 L226.332313,111.409225 Z M227.374411,102.223749 L227.374411,111.409225 L228.115458,111.409225 L228.115458,105.29735 L229.968075,105.29735 L229.968075,104.578999 L228.115458,104.578999 L228.115458,102.223749 L227.374411,102.223749 Z M231.34596,104.578999 L230.604913,104.578999 L230.604913,109.713445 C230.604913,110.914622 231.357539,111.409225 232.45753,111.409225 L234.49541,111.409225 C235.595402,111.409225 236.348027,110.914622 236.348027,109.713445 L236.348027,104.578999 L235.60698,104.578999 L235.60698,109.548577 C235.60698,110.42002 235.109089,110.690873 234.333306,110.690873 L232.642792,110.690873 C231.832272,110.690873 231.34596,110.42002 231.34596,109.548577 L231.34596,104.578999 Z M238.362749,106.439647 C238.362749,105.57998 238.849061,105.309127 239.659582,105.309127 L240.157473,105.309127 L240.157473,104.578999 L239.47432,104.578999 C238.374328,104.578999 237.621702,105.073602 237.621702,106.274779 L237.621702,111.409225 L238.362749,111.409225 L238.362749,106.439647 Z M242.473245,111.409225 C241.373253,111.409225 240.620627,110.914622 240.620627,109.713445 L240.620627,108.571148 C240.620627,107.369971 241.373253,106.898921 242.473245,106.898921 L245.657431,106.898921 L245.657431,106.439647 C245.657431,105.568204 245.171119,105.29735 244.383757,105.29735 L240.678521,105.29735 L240.678521,104.578999 L244.545861,104.578999 C245.645852,104.578999 246.398478,105.050049 246.398478,106.251227 L246.398478,109.713445 C246.398478,110.914622 245.645852,111.409225 244.545861,111.409225 L242.473245,111.409225 Z M244.383757,110.690873 C245.391117,110.690873 245.657431,110.32581 245.657431,109.101079 L245.657431,107.629048 L242.635349,107.629048 C241.882723,107.629048 241.361674,107.864573 241.361674,108.700687 L241.361674,109.47792 C241.361674,110.408243 241.743776,110.690873 242.635349,110.690873 L244.383757,110.690873 Z M250.474237,108.217861 L253.716318,108.217861 L253.716318,107.440628 L250.474237,107.440628 L250.474237,108.217861 Z M263.870978,103.000981 L263.870978,102.223749 L259.748904,102.223749 C258.637334,102.223749 257.907865,102.730128 257.907865,103.931305 L257.907865,109.725221 C257.907865,110.926398 258.637334,111.409225 259.748904,111.409225 L263.870978,111.409225 L263.870978,110.631992 L259.957324,110.631992 C259.169961,110.631992 258.695228,110.349362 258.695228,109.47792 L258.695228,104.155054 C258.695228,103.295388 259.169961,103.000981 259.957324,103.000981 L263.870978,103.000981 Z M270.714085,106.251227 L270.714085,109.725221 C270.714085,110.926398 269.961459,111.409225 268.861467,111.409225 L266.765693,111.409225 C265.665702,111.409225 264.913076,110.914622 264.913076,109.713445 L264.913076,106.263003 C264.913076,105.061825 265.665702,104.578999 266.765693,104.578999 L268.861467,104.578999 C269.961459,104.578999 270.714085,105.050049 270.714085,106.251227 Z M265.654123,106.439647 L265.654123,109.548577 C265.654123,110.42002 266.152014,110.690873 266.950955,110.690873 L268.606732,110.690873 C269.417253,110.690873 269.973038,110.467125 269.973038,109.548577 L269.973038,106.439647 C269.973038,105.521099 269.417253,105.309127 268.606732,105.309127 L266.950955,105.309127 C266.152014,105.309127 265.654123,105.57998 265.654123,106.439647 Z M276.816144,111.409225 L277.557191,111.409225 L277.557191,106.251227 C277.557191,105.050049 276.804565,104.578999 275.704574,104.578999 L273.666694,104.578999 C272.566703,104.578999 271.814077,105.050049 271.814077,106.251227 L271.814077,111.409225 L272.555124,111.409225 L272.555124,106.439647 C272.555124,105.57998 273.041436,105.309127 273.828798,105.309127 L275.519312,105.309127 C276.318253,105.309127 276.816144,105.57998 276.816144,106.439647 L276.816144,111.409225 Z M282.825573,109.583906 C282.813994,110.443572 282.362418,110.679097 281.563477,110.679097 L278.4835,110.679097 L278.4835,111.409225 L281.714002,111.409225 C282.813994,111.409225 283.56662,110.949951 283.56662,109.748773 L283.56662,109.277723 C283.56662,108.041217 282.813994,107.499509 281.714002,107.499509 L280.428749,107.499509 C279.664544,107.499509 279.166653,107.252208 279.166653,106.439647 C279.166653,105.556428 279.618228,105.309127 280.428749,105.309127 L283.508725,105.309127 L283.508725,104.578999 L280.278223,104.578999 C279.178232,104.578999 278.425606,105.038273 278.425606,106.23945 L278.425606,106.439647 C278.425606,107.676153 279.178232,108.217861 280.278223,108.217861 L281.563477,108.217861 C282.327682,108.217861 282.825573,108.465162 282.825573,109.277723 L282.825573,109.583906 Z M284.608717,102.223749 L284.608717,111.409225 L285.349764,111.409225 L285.349764,105.29735 L287.202382,105.29735 L287.202382,104.578999 L285.349764,104.578999 L285.349764,102.223749 L284.608717,102.223749 Z M288.580266,106.439647 C288.580266,105.57998 289.066578,105.309127 289.877099,105.309127 L290.37499,105.309127 L290.37499,104.578999 L289.691837,104.578999 C288.591845,104.578999 287.839219,105.073602 287.839219,106.274779 L287.839219,111.409225 L288.580266,111.409225 L288.580266,106.439647 Z M291.752874,104.578999 L291.011827,104.578999 L291.011827,109.713445 C291.011827,110.914622 291.764453,111.409225 292.864445,111.409225 L294.902324,111.409225 C296.002316,111.409225 296.754942,110.914622 296.754942,109.713445 L296.754942,104.578999 L296.013895,104.578999 L296.013895,109.548577 C296.013895,110.42002 295.516004,110.690873 294.74022,110.690873 L293.049706,110.690873 C292.239186,110.690873 291.752874,110.42002 291.752874,109.548577 L291.752874,104.578999 Z M302.602266,111.409225 L302.602266,110.690873 L299.985444,110.690873 C299.198081,110.690873 298.711769,110.42002 298.711769,109.548577 L298.711769,106.439647 C298.711769,105.57998 299.198081,105.309127 299.985444,105.309127 L302.602266,105.309127 L302.602266,104.578999 L299.82334,104.578999 C298.723348,104.578999 297.970722,105.050049 297.970722,106.251227 L297.970722,109.713445 C297.970722,110.914622 298.723348,111.409225 299.82334,111.409225 L302.602266,111.409225 Z M308.160119,111.409225 L308.160119,110.690873 L305.543297,110.690873 C304.755934,110.690873 304.269622,110.42002 304.269622,109.548577 L304.269622,106.439647 C304.269622,105.57998 304.755934,105.309127 305.543297,105.309127 L308.160119,105.309127 L308.160119,104.578999 L305.381193,104.578999 C304.281201,104.578999 303.528575,105.050049 303.528575,106.251227 L303.528575,109.713445 C303.528575,110.914622 304.281201,111.409225 305.381193,111.409225 L308.160119,111.409225 Z M310.012737,104.578999 L309.27169,104.578999 L309.27169,111.409225 L310.012737,111.409225 L310.012737,104.578999 Z M309.202217,103.625123 C309.202217,103.872424 309.399057,104.07262 309.642213,104.07262 C309.885369,104.07262 310.08221,103.872424 310.08221,103.625123 C310.08221,103.377821 309.885369,103.177625 309.642213,103.177625 C309.399057,103.177625 309.202217,103.377821 309.202217,103.625123 Z M317.156894,106.251227 L317.156894,109.725221 C317.156894,110.926398 316.404268,111.409225 315.304276,111.409225 L313.208502,111.409225 C312.10851,111.409225 311.355885,110.914622 311.355885,109.713445 L311.355885,106.263003 C311.355885,105.061825 312.10851,104.578999 313.208502,104.578999 L315.304276,104.578999 C316.404268,104.578999 317.156894,105.050049 317.156894,106.251227 Z M312.096932,106.439647 L312.096932,109.548577 C312.096932,110.42002 312.594823,110.690873 313.393764,110.690873 L315.049541,110.690873 C315.860061,110.690873 316.415846,110.467125 316.415846,109.548577 L316.415846,106.439647 C316.415846,105.521099 315.860061,105.309127 315.049541,105.309127 L313.393764,105.309127 C312.594823,105.309127 312.096932,105.57998 312.096932,106.439647 Z M323.258953,111.409225 L324,111.409225 L324,106.251227 C324,105.050049 323.247374,104.578999 322.147382,104.578999 L320.109503,104.578999 C319.009511,104.578999 318.256885,105.050049 318.256885,106.251227 L318.256885,111.409225 L318.997932,111.409225 L318.997932,106.439647 C318.997932,105.57998 319.484244,105.309127 320.271607,105.309127 L321.962121,105.309127 C322.761062,105.309127 323.258953,105.57998 323.258953,106.439647 L323.258953,111.409225 Z" id="Arquitectura---Const" fill="url(#linearGradient-1)"></path>
                        <path d="M233.99014,125.628 C233.230896,125.628 232.736237,125.364 232.736237,124.524 L232.736237,119.4 L232,119.4 L232,124.656 C232,125.88 232.74774,126.36 233.840592,126.36 L236.935086,126.36 L236.935086,127.104 C236.935086,127.992 236.451931,128.268 235.66968,128.268 L232.069022,128.268 L232.069022,129 L235.842235,129 C236.935086,129 237.682827,128.52 237.682827,127.296 L237.682827,119.4 L236.935086,119.4 L236.935086,125.628 L233.99014,125.628 Z M244.343468,121.164 C243.561216,121.164 243.089565,120.876 243.089565,120 L243.089565,118.968 C243.089565,118.092 243.561216,117.792 244.343468,117.792 L248.197206,117.792 L248.197206,117 L244.136401,117 C243.032046,117 242.307313,117.492 242.307313,118.716 L242.307313,120.228 C242.307313,121.452 243.032046,121.968 244.136401,121.968 L246.21857,121.968 C247.000822,121.968 247.46097,122.256 247.46097,123.132 L247.46097,124.392 C247.46097,125.28 247.000822,125.568 246.21857,125.568 L242.364832,125.568 L242.364832,126.36 L246.425637,126.36 C247.518488,126.36 248.254725,125.868 248.254725,124.644 L248.254725,122.904 C248.254725,121.692 247.518488,121.164 246.425637,121.164 L244.343468,121.164 Z M255.064914,125.628 L255.064914,126.36 L251.234182,126.36 C250.141331,126.36 249.405094,125.856 249.405094,124.62 L249.405094,121.104 C249.405094,119.88 250.152835,119.4 251.245686,119.4 L253.304848,119.4 C254.397699,119.4 255.133936,119.892 255.133936,121.116 L255.133936,122.004 L250.152835,124.068 C250.152835,125.304 250.41742,125.628 251.47576,125.628 L255.064914,125.628 Z M250.141331,121.332 L250.141331,123.3 L254.386196,121.536 L254.386196,121.224 C254.386196,120.384 253.960559,120.144 253.074774,120.144 L251.452753,120.144 C250.578472,120.144 250.141331,120.456 250.141331,121.332 Z M256.963024,121.296 C256.963024,120.42 257.446179,120.144 258.251438,120.144 L258.746097,120.144 L258.746097,119.4 L258.067379,119.4 C256.974528,119.4 256.226787,119.904 256.226787,121.128 L256.226787,126.36 L256.963024,126.36 L256.963024,121.296 Z M265.602301,119.4 L264.808546,119.4 L262.174199,125.4 L259.551356,119.4 L258.746097,119.4 L261.67954,126.156 C261.783073,126.396 261.944125,126.492 262.174199,126.492 C262.415776,126.492 262.565325,126.396 262.668858,126.156 L265.602301,119.4 Z M267.097781,119.4 L266.361545,119.4 L266.361545,126.36 L267.097781,126.36 L267.097781,119.4 Z M266.292523,118.428 C266.292523,118.68 266.488085,118.884 266.729663,118.884 C266.971241,118.884 267.166804,118.68 267.166804,118.428 C267.166804,118.176 266.971241,117.972 266.729663,117.972 C266.488085,117.972 266.292523,118.176 266.292523,118.428 Z M273.033689,126.36 L273.033689,125.628 L270.433854,125.628 C269.651602,125.628 269.168447,125.352 269.168447,124.464 L269.168447,121.296 C269.168447,120.42 269.651602,120.144 270.433854,120.144 L273.033689,120.144 L273.033689,119.4 L270.272802,119.4 C269.179951,119.4 268.43221,119.88 268.43221,121.104 L268.43221,124.632 C268.43221,125.856 269.179951,126.36 270.272802,126.36 L273.033689,126.36 Z M274.874281,119.4 L274.138044,119.4 L274.138044,126.36 L274.874281,126.36 L274.874281,119.4 Z M274.069022,118.428 C274.069022,118.68 274.264585,118.884 274.506163,118.884 C274.74774,118.884 274.943303,118.68 274.943303,118.428 C274.943303,118.176 274.74774,117.972 274.506163,117.972 C274.264585,117.972 274.069022,118.176 274.069022,118.428 Z M281.972062,121.104 L281.972062,124.644 C281.972062,125.868 281.224322,126.36 280.131471,126.36 L278.049302,126.36 C276.95645,126.36 276.20871,125.856 276.20871,124.632 L276.20871,121.116 C276.20871,119.892 276.95645,119.4 278.049302,119.4 L280.131471,119.4 C281.224322,119.4 281.972062,119.88 281.972062,121.104 Z M276.944947,121.296 L276.944947,124.464 C276.944947,125.352 277.439606,125.628 278.233361,125.628 L279.878389,125.628 C280.683648,125.628 281.235826,125.4 281.235826,124.464 L281.235826,121.296 C281.235826,120.36 280.683648,120.144 279.878389,120.144 L278.233361,120.144 C277.439606,120.144 276.944947,120.42 276.944947,121.296 Z M287.263763,124.5 C287.25226,125.376 286.803615,125.616 286.00986,125.616 L282.949877,125.616 L282.949877,126.36 L286.159408,126.36 C287.25226,126.36 288,125.892 288,124.668 L288,124.188 C288,122.928 287.25226,122.376 286.159408,122.376 L284.882498,122.376 C284.123254,122.376 283.628595,122.124 283.628595,121.296 C283.628595,120.396 284.077239,120.144 284.882498,120.144 L287.942482,120.144 L287.942482,119.4 L284.73295,119.4 C283.640099,119.4 282.892358,119.868 282.892358,121.092 L282.892358,121.296 C282.892358,122.556 283.640099,123.108 284.73295,123.108 L286.00986,123.108 C286.769104,123.108 287.263763,123.36 287.263763,124.188 L287.263763,124.5 Z" id="y-Servicios" fill="url(#linearGradient-1)"></path>
                        <path d="M197.85061,54.8717196 C196.112805,54.8717196 195.172764,55.7279006 195.172764,57.6956146 L195.172764,71.2643301 C195.172764,73.3071478 196.117886,74.1282804 197.85061,74.1282804 L210,74.1282804 L210,79 L196.189024,79 C192.566057,79 190,77.2175414 190,73.4924033 L190,55.7279006 C190,52.0077693 192.54065,50 196.189024,50 L210,50 L210,54.8717196 L197.85061,54.8717196 Z" id="Shape" fill="url(#linearGradient-2)" fill-rule="nonzero"></path>
                        <path d="M211,79 L220.181298,52.2370433 C221.01736,49.815633 222.4638,49 224.048728,49 C225.633656,49 227.249359,49.7952421 228.049517,52.2166525 L237,78.9796092 L231.604064,78.9796092 L229.47031,73.0764656 L218.539949,73.0764656 L216.406195,78.9796092 L211,79 Z M224.048728,56.8198811 L220.047938,68.1367884 L228.008483,68.1367884 L224.048728,56.8198811 Z" id="Shape" fill="url(#linearGradient-2)" fill-rule="nonzero"></path>
                        <path d="M271.954315,67.7191651 C271.616774,67.4036924 271.347421,67.0242352 271.162437,66.6035881 L271.162437,78.9749871 L266,78.9749871 L266,50 L282.020305,50 C285.675127,50 288.203046,52.001035 288.203046,55.7229602 L288.203046,61.7260652 C288.203046,65.9232362 286.771574,68.0793514 281.096447,68.0793514 L278.558376,68.0793514 L289,79 L282.659898,79 L271.954315,67.7191651 Z M271.162437,64.2623771 C271.752779,63.5073504 272.684302,63.0895556 273.649746,63.1468001 L280.360406,63.1468001 C282.096447,63.1468001 283.076142,62.2913576 283.076142,60.3253407 L283.076142,57.6889771 C283.076142,55.7179576 282.096447,54.8675177 280.360406,54.8675177 L271.162437,54.8675177 L271.162437,64.2623771 Z" id="Shape" fill="url(#linearGradient-2)" fill-rule="nonzero"></path>
                        <path d="M315,73.4885971 C315,77.2112992 312.485139,79 308.8738,79 L299.1262,79 C295.540009,79 293,76.9958535 293,73.268141 L293,55.731859 C293,52.0091569 295.514861,50 299.1262,50 L308.8738,50 C312.495199,50 315,52.0041465 315,55.731859 L315,73.4885971 Z M298.120256,71.2539737 C298.120256,73.2982032 299.055784,74.1199032 300.997257,74.1199032 L307.234111,74.1199032 C308.954275,74.1199032 309.925011,73.3032135 309.925011,71.2539737 L309.925011,57.6758811 C309.925011,55.7017968 308.954275,54.8500346 307.234111,54.8500346 L300.977138,54.8500346 C299.035665,54.8500346 298.100137,55.7068072 298.100137,57.6758811 L298.120256,71.2539737 Z" id="Shape" fill="url(#linearGradient-2)" fill-rule="nonzero"></path>
                        <path d="M248.506627,49 L251.742436,49 C254.888222,49 256.31858,50.7971164 256.31858,54.030896 L256.31858,55.215242 C256.31858,59.7672503 253.857964,60.215242 250.372093,61.8836251 L257.783946,69.576725 C257.921867,69.0860598 257.995866,68.5787036 258.004001,68.0679712 L258.004001,62.4603502 L260.004501,62.4603502 L260.004501,66.3377961 C260.004501,68.2276004 259.939485,70.1534501 259.414354,71.2760041 L262,74 L259.364341,74 L258.179045,72.7796087 C257.088772,73.9639547 255.533383,74 253.257814,74 L246.546137,74 C243.40035,74 242,72.1410917 242,69.030896 L242,67.2698249 C242,63.6138002 243.930483,62.8774459 247.2013,61.4356334 L246.92123,61.1472709 C245.24081,59.4170958 243.92048,58.0576725 243.92048,54.9680742 C243.930483,51.2399588 244.925731,49 248.506627,49 Z M246.451113,63.8094748 C244.895724,64.576725 244.115529,65.0298661 244.115529,67.2698249 C244.115529,70.1534501 244.270568,72.0484037 246.981245,72.0484037 L253.767942,72.0484037 C255.07827,72.0484037 256.073518,71.8218332 256.633658,71.1833162 L248.566642,62.7796087 L246.451113,63.8094748 Z M248.911728,51.0494336 C246.451113,51.0494336 245.985996,52.2698249 245.985996,55.0247168 C245.985996,58.0061792 247.326332,58.7116375 248.986747,60.5036045 L252.787697,58.6446962 C254.063016,58.0061792 254.253063,56.8166838 254.253063,54.9577755 C254.253063,52.1050463 253.907977,51.0442842 251.357339,51.0442842 L248.911728,51.0494336 Z" id="Shape" fill="url(#radialGradient-3)" fill-rule="nonzero"></path>
                        <polygon id="Shape" fill="url(#radialGradient-4)" fill-rule="nonzero" points="187 89 323 89 320.331136 86 190.33608 86"></polygon>
                        <polygon id="Shape" fill="url(#linearGradient-2)" fill-rule="nonzero" points="187 93 323 93 320.331136 90 190.33608 90"></polygon>
                        <circle id="Oval" fill="url(#radialGradient-5)" fill-rule="nonzero" cx="93.5" cy="77.5" r="36.5"></circle>
                        <path d="M93,79 L93,80" id="Shape" stroke="#FFFFFF" stroke-width="1.5"></path>
                        <path d="M93,83 L93,170" id="Shape" stroke="#2E2E2E" stroke-dasharray="3"></path>
                        <path d="M93,171 L93,172" id="Shape" stroke="#2E2E2E" stroke-dasharray="3"></path>
                        <path d="M93,79 L94,80" id="Shape" stroke="#FFFFFF" stroke-width="1.5"></path>
                        <path d="M96,82 L157,143" id="Shape" stroke="#2E2E2E" stroke-dasharray="3"></path>
                        <path d="M158,144 L159,145" id="Shape" stroke="#2E2E2E" stroke-dasharray="3"></path>
                        <path d="M93,136.777747 C62.3734407,136.77546 36.9006339,113.354718 34.5103851,83 C30.4394091,100.705574 34.6975122,119.290632 46.079941,133.496869 C57.4623699,147.703105 74.7310055,155.985243 93,156 L93,136.777747 Z" id="Shape" fill="url(#linearGradient-2)" fill-rule="nonzero"></path>
                        <path d="M137,38.5173827 C158.484033,60.3293219 159.523425,94.9460806 139.386521,118 C154.964113,108.444799 165.330975,92.3395645 167.553905,74.2411172 C169.776835,56.1426699 163.614027,38.0197274 150.809186,25 L137,38.5173827 Z" id="Shape" fill="url(#radialGradient-6)" fill-rule="nonzero" transform="translate(152.500000, 71.500000) rotate(2.000000) translate(-152.500000, -71.500000) "></path>
                        <path d="M39.2190345,134.223135 C24.8403792,119.970157 16.0214026,100.728131 16.0214026,79.5563313 C16.0214026,38.0889802 49.404978,1.32703628 93,0.339356605 C90.5108961,0.121560575 87.9962892,0 85.4561791,0 C38.2550168,0 0.000346724088,38.7322382 0.000346724088,86.5156742 C-0.0647804606,109.530962 9.04735949,131.636068 25.3453408,148 L39.2190345,134.223135 Z" id="Shape" fill="url(#linearGradient-7)" fill-rule="nonzero"></path>
                        <circle id="Oval-Copy" stroke="#2E2E2E" stroke-dasharray="3" fill-rule="nonzero" cx="93.5" cy="77.5" r="59.5"></circle>
                    </g>
                </g>
            </g>
        </g>
    </g>
</svg>