<?xml version="1.0" encoding="UTF-8"?>
<svg width="329px" height="178px" viewBox="0 0 329 178" version="1.1" xmlns="http://www.w3.org/2000/svg" xmlns:xlink="http://www.w3.org/1999/xlink">
    <!-- Generator: Sketch 46.2 (44496) - http://www.bohemiancoding.com/sketch -->
    <title>logosvg</title>
    <desc>Created with Sketch.</desc>
    <defs>
        <filter x="-2.3%" y="-3.2%" width="104.0%" height="108.2%" filterUnits="objectBoundingBox" id="filter-1">
            <feOffset dx="-1" dy="1" in="SourceAlpha" result="shadowOffsetOuter1"></feOffset>
            <feGaussianBlur stdDeviation="2" in="shadowOffsetOuter1" result="shadowBlurOuter1"></feGaussianBlur>
            <feColorMatrix values="0 0 0 0 0   0 0 0 0 0   0 0 0 0 0  0 0 0 0.5 0" type="matrix" in="shadowBlurOuter1" result="shadowMatrixOuter1"></feColorMatrix>
            <feMerge>
                <feMergeNode in="shadowMatrixOuter1"></feMergeNode>
                <feMergeNode in="SourceGraphic"></feMergeNode>
            </feMerge>
        </filter>
        <radialGradient cx="50%" cy="50%" fx="50%" fy="50%" r="74.8871688%" gradientTransform="translate(0.500000,0.500000),scale(0.029630,1.000000),rotate(-0.217185),translate(-0.500000,-0.500000)" id="radialGradient-2">
            <stop stop-color="#F6F6F6" offset="0%"></stop>
            <stop stop-color="#FF7F00" offset="0%"></stop>
            <stop stop-color="#E5472C" offset="100%"></stop>
        </radialGradient>
        <linearGradient x1="22.3111979%" y1="92.9179152%" x2="70.4492188%" y2="37.8558433%" id="linearGradient-3">
            <stop stop-color="#000000" offset="0%"></stop>
            <stop stop-color="#505050" offset="100%"></stop>
        </linearGradient>
        <linearGradient x1="-13.5143649%" y1="53.1883446%" x2="83.7701613%" y2="53.1883419%" id="linearGradient-4">
            <stop stop-color="#000000" offset="0%"></stop>
            <stop stop-color="#505050" offset="100%"></stop>
        </linearGradient>
    </defs>
    <g id="Arq-Gabriela-Rojas" stroke="none" stroke-width="1" fill="none" fill-rule="evenodd">
        <g id="Desktop-HD-Copy" transform="translate(-51.000000, -6956.000000)">
            <g id="Footer" transform="translate(0.000000, 6779.000000)">
                <g id="logosvg" filter="url(#filter-1)" transform="translate(56.000000, 180.000000)">
                    <path d="M183.787528,110.409225 L183,110.409225 L186.230006,101.506379 C186.355554,101.141315 186.549582,101 186.789265,101 C187.028947,101 187.222976,101.141315 187.348524,101.506379 L190.555703,110.409225 L189.768175,110.409225 L188.889339,108.042198 L184.666363,108.042198 L183.787528,110.409225 Z M188.649657,107.300294 L186.777851,102.236506 L184.906046,107.300294 L188.649657,107.300294 Z M191.913903,105.439647 C191.913903,104.57998 192.393268,104.309127 193.192209,104.309127 L193.682987,104.309127 L193.682987,103.578999 L193.009594,103.578999 C191.925316,103.578999 191.183442,104.073602 191.183442,105.274779 L191.183442,110.409225 L191.913903,110.409225 L191.913903,105.439647 Z M199.127202,110.409225 L196.079811,110.409225 C194.995534,110.409225 194.25366,109.938175 194.25366,108.736997 L194.25366,105.274779 C194.25366,104.073602 194.995534,103.578999 196.079811,103.578999 L198.031511,103.578999 C199.115789,103.578999 199.857663,104.073602 199.857663,105.274779 L199.857663,113 L199.127202,113 L199.127202,110.409225 Z M199.127202,109.690873 L199.127202,105.439647 C199.127202,104.57998 198.636424,104.29735 197.848896,104.29735 L196.2396,104.29735 C195.474899,104.29735 194.98412,104.57998 194.98412,105.439647 L194.98412,108.548577 C194.98412,109.467125 195.520552,109.690873 196.30808,109.690873 L199.127202,109.690873 Z M201.843603,103.578999 L201.113142,103.578999 L201.113142,108.713445 C201.113142,109.914622 201.855016,110.409225 202.939294,110.409225 L204.948061,110.409225 C206.032338,110.409225 206.774212,109.914622 206.774212,108.713445 L206.774212,103.578999 L206.043752,103.578999 L206.043752,108.548577 C206.043752,109.42002 205.552973,109.690873 204.788272,109.690873 L203.121909,109.690873 C202.322967,109.690873 201.843603,109.42002 201.843603,108.548577 L201.843603,103.578999 Z M208.8857,103.578999 L208.155239,103.578999 L208.155239,110.409225 L208.8857,110.409225 L208.8857,103.578999 Z M208.086759,102.625123 C208.086759,102.872424 208.280787,103.07262 208.52047,103.07262 C208.760152,103.07262 208.954181,102.872424 208.954181,102.625123 C208.954181,102.377821 208.760152,102.177625 208.52047,102.177625 C208.280787,102.177625 208.086759,102.377821 208.086759,102.625123 Z M210.323795,101.223749 L210.323795,110.409225 L211.054255,110.409225 L211.054255,104.29735 L212.880407,104.29735 L212.880407,103.578999 L211.054255,103.578999 L211.054255,101.223749 L210.323795,101.223749 Z M219.066496,109.690873 L219.066496,110.409225 L215.265818,110.409225 C214.18154,110.409225 213.451079,109.914622 213.451079,108.701668 L213.451079,105.251227 C213.451079,104.050049 214.192953,103.578999 215.277231,103.578999 L217.320238,103.578999 C218.404516,103.578999 219.134976,104.061825 219.134976,105.263003 L219.134976,106.134446 L214.192953,108.159961 C214.192953,109.372915 214.455463,109.690873 215.5055,109.690873 L219.066496,109.690873 Z M214.18154,105.474975 L214.18154,107.406281 L218.393102,105.675172 L218.393102,105.368989 C218.393102,104.544652 217.970805,104.309127 217.091969,104.309127 L215.482673,104.309127 C214.615251,104.309127 214.18154,104.615309 214.18154,105.474975 Z M224.727566,110.409225 L224.727566,109.690873 L222.148127,109.690873 C221.372012,109.690873 220.892647,109.42002 220.892647,108.548577 L220.892647,105.439647 C220.892647,104.57998 221.372012,104.309127 222.148127,104.309127 L224.727566,104.309127 L224.727566,103.578999 L221.988338,103.578999 C220.904061,103.578999 220.162187,104.050049 220.162187,105.251227 L220.162187,108.713445 C220.162187,109.914622 220.904061,110.409225 221.988338,110.409225 L224.727566,110.409225 Z M225.754776,101.223749 L225.754776,110.409225 L226.485237,110.409225 L226.485237,104.29735 L228.311389,104.29735 L228.311389,103.578999 L226.485237,103.578999 L226.485237,101.223749 L225.754776,101.223749 Z M229.669589,103.578999 L228.939128,103.578999 L228.939128,108.713445 C228.939128,109.914622 229.681002,110.409225 230.76528,110.409225 L232.774047,110.409225 C233.858324,110.409225 234.600198,109.914622 234.600198,108.713445 L234.600198,103.578999 L233.869738,103.578999 L233.869738,108.548577 C233.869738,109.42002 233.37896,109.690873 232.614259,109.690873 L230.947895,109.690873 C230.148954,109.690873 229.669589,109.42002 229.669589,108.548577 L229.669589,103.578999 Z M236.586138,105.439647 C236.586138,104.57998 237.065503,104.309127 237.864445,104.309127 L238.355223,104.309127 L238.355223,103.578999 L237.681829,103.578999 C236.597552,103.578999 235.855678,104.073602 235.855678,105.274779 L235.855678,110.409225 L236.586138,110.409225 L236.586138,105.439647 Z M240.637912,110.409225 C239.553635,110.409225 238.811761,109.914622 238.811761,108.713445 L238.811761,107.571148 C238.811761,106.369971 239.553635,105.898921 240.637912,105.898921 L243.776611,105.898921 L243.776611,105.439647 C243.776611,104.568204 243.297246,104.29735 242.521131,104.29735 L238.868828,104.29735 L238.868828,103.578999 L242.68092,103.578999 C243.765197,103.578999 244.507071,104.050049 244.507071,105.251227 L244.507071,108.713445 C244.507071,109.914622 243.765197,110.409225 242.68092,110.409225 L240.637912,110.409225 Z M242.521131,109.690873 C243.514101,109.690873 243.776611,109.32581 243.776611,108.101079 L243.776611,106.629048 L240.797701,106.629048 C240.055827,106.629048 239.542221,106.864573 239.542221,107.700687 L239.542221,108.47792 C239.542221,109.408243 239.918865,109.690873 240.797701,109.690873 L242.521131,109.690873 Z M248.524605,107.217861 L251.720371,107.217861 L251.720371,106.440628 L248.524605,106.440628 L248.524605,107.217861 Z M261.729964,102.000981 L261.729964,101.223749 L257.666777,101.223749 C256.571086,101.223749 255.852039,101.730128 255.852039,102.931305 L255.852039,108.725221 C255.852039,109.926398 256.571086,110.409225 257.666777,110.409225 L261.729964,110.409225 L261.729964,109.631992 L257.872219,109.631992 C257.096105,109.631992 256.628153,109.349362 256.628153,108.47792 L256.628153,103.155054 C256.628153,102.295388 257.096105,102.000981 257.872219,102.000981 L261.729964,102.000981 Z M268.475312,105.251227 L268.475312,108.725221 C268.475312,109.926398 267.733438,110.409225 266.649161,110.409225 L264.583326,110.409225 C263.499049,110.409225 262.757175,109.914622 262.757175,108.713445 L262.757175,105.263003 C262.757175,104.061825 263.499049,103.578999 264.583326,103.578999 L266.649161,103.578999 C267.733438,103.578999 268.475312,104.050049 268.475312,105.251227 Z M263.487635,105.439647 L263.487635,108.548577 C263.487635,109.42002 263.978414,109.690873 264.765942,109.690873 L266.398065,109.690873 C267.197006,109.690873 267.744852,109.467125 267.744852,108.548577 L267.744852,105.439647 C267.744852,104.521099 267.197006,104.309127 266.398065,104.309127 L264.765942,104.309127 C263.978414,104.309127 263.487635,104.57998 263.487635,105.439647 Z M274.490199,110.409225 L275.22066,110.409225 L275.22066,105.251227 C275.22066,104.050049 274.478786,103.578999 273.394508,103.578999 L271.385741,103.578999 C270.301464,103.578999 269.55959,104.050049 269.55959,105.251227 L269.55959,110.409225 L270.29005,110.409225 L270.29005,105.439647 C270.29005,104.57998 270.769415,104.309127 271.54553,104.309127 L273.211893,104.309127 C273.999421,104.309127 274.490199,104.57998 274.490199,105.439647 L274.490199,110.409225 Z M280.413779,108.583906 C280.402365,109.443572 279.957241,109.679097 279.169713,109.679097 L276.133736,109.679097 L276.133736,110.409225 L279.318088,110.409225 C280.402365,110.409225 281.14424,109.949951 281.14424,108.748773 L281.14424,108.277723 C281.14424,107.041217 280.402365,106.499509 279.318088,106.499509 L278.051195,106.499509 C277.297908,106.499509 276.807129,106.252208 276.807129,105.439647 C276.807129,104.556428 277.252254,104.309127 278.051195,104.309127 L281.087172,104.309127 L281.087172,103.578999 L277.90282,103.578999 C276.818543,103.578999 276.076669,104.038273 276.076669,105.23945 L276.076669,105.439647 C276.076669,106.676153 276.818543,107.217861 277.90282,107.217861 L279.169713,107.217861 C279.923001,107.217861 280.413779,107.465162 280.413779,108.277723 L280.413779,108.583906 Z M282.17145,101.223749 L282.17145,110.409225 L282.901911,110.409225 L282.901911,104.29735 L284.728062,104.29735 L284.728062,103.578999 L282.901911,103.578999 L282.901911,101.223749 L282.17145,101.223749 Z M286.086263,105.439647 C286.086263,104.57998 286.565627,104.309127 287.364569,104.309127 L287.855347,104.309127 L287.855347,103.578999 L287.181954,103.578999 C286.097676,103.578999 285.355802,104.073602 285.355802,105.274779 L285.355802,110.409225 L286.086263,110.409225 L286.086263,105.439647 Z M289.213547,103.578999 L288.483087,103.578999 L288.483087,108.713445 C288.483087,109.914622 289.224961,110.409225 290.309238,110.409225 L292.318005,110.409225 C293.402283,110.409225 294.144157,109.914622 294.144157,108.713445 L294.144157,103.578999 L293.413696,103.578999 L293.413696,108.548577 C293.413696,109.42002 292.922918,109.690873 292.158217,109.690873 L290.491853,109.690873 C289.692912,109.690873 289.213547,109.42002 289.213547,108.548577 L289.213547,103.578999 Z M299.907948,110.409225 L299.907948,109.690873 L297.328509,109.690873 C296.552394,109.690873 296.07303,109.42002 296.07303,108.548577 L296.07303,105.439647 C296.07303,104.57998 296.552394,104.309127 297.328509,104.309127 L299.907948,104.309127 L299.907948,103.578999 L297.168721,103.578999 C296.084443,103.578999 295.342569,104.050049 295.342569,105.251227 L295.342569,108.713445 C295.342569,109.914622 296.084443,110.409225 297.168721,110.409225 L299.907948,110.409225 Z M305.386403,110.409225 L305.386403,109.690873 L302.806964,109.690873 C302.030849,109.690873 301.551485,109.42002 301.551485,108.548577 L301.551485,105.439647 C301.551485,104.57998 302.030849,104.309127 302.806964,104.309127 L305.386403,104.309127 L305.386403,103.578999 L302.647176,103.578999 C301.562898,103.578999 300.821024,104.050049 300.821024,105.251227 L300.821024,108.713445 C300.821024,109.914622 301.562898,110.409225 302.647176,110.409225 L305.386403,110.409225 Z M307.212555,103.578999 L306.482094,103.578999 L306.482094,110.409225 L307.212555,110.409225 L307.212555,103.578999 Z M306.413613,102.625123 C306.413613,102.872424 306.607642,103.07262 306.847324,103.07262 C307.087007,103.07262 307.281035,102.872424 307.281035,102.625123 C307.281035,102.377821 307.087007,102.177625 306.847324,102.177625 C306.607642,102.177625 306.413613,102.377821 306.413613,102.625123 Z M314.254652,105.251227 L314.254652,108.725221 C314.254652,109.926398 313.512778,110.409225 312.428501,110.409225 L310.362666,110.409225 C309.278389,110.409225 308.536515,109.914622 308.536515,108.713445 L308.536515,105.263003 C308.536515,104.061825 309.278389,103.578999 310.362666,103.578999 L312.428501,103.578999 C313.512778,103.578999 314.254652,104.050049 314.254652,105.251227 Z M309.266975,105.439647 L309.266975,108.548577 C309.266975,109.42002 309.757754,109.690873 310.545282,109.690873 L312.177405,109.690873 C312.976346,109.690873 313.524192,109.467125 313.524192,108.548577 L313.524192,105.439647 C313.524192,104.521099 312.976346,104.309127 312.177405,104.309127 L310.545282,104.309127 C309.757754,104.309127 309.266975,104.57998 309.266975,105.439647 Z M320.269539,110.409225 L321,110.409225 L321,105.251227 C321,104.050049 320.258126,103.578999 319.173848,103.578999 L317.165081,103.578999 C316.080804,103.578999 315.33893,104.050049 315.33893,105.251227 L315.33893,110.409225 L316.06939,110.409225 L316.06939,105.439647 C316.06939,104.57998 316.548755,104.309127 317.32487,104.309127 L318.991233,104.309127 C319.778761,104.309127 320.269539,104.57998 320.269539,105.439647 L320.269539,110.409225 Z" id="Arquitectura---Const" fill="#FFFFFF"></path>
                    <path d="M231.99014,124.628 C231.230896,124.628 230.736237,124.364 230.736237,123.524 L230.736237,118.4 L230,118.4 L230,123.656 C230,124.88 230.74774,125.36 231.840592,125.36 L234.935086,125.36 L234.935086,126.104 C234.935086,126.992 234.451931,127.268 233.66968,127.268 L230.069022,127.268 L230.069022,128 L233.842235,128 C234.935086,128 235.682827,127.52 235.682827,126.296 L235.682827,118.4 L234.935086,118.4 L234.935086,124.628 L231.99014,124.628 Z M242.343468,120.164 C241.561216,120.164 241.089565,119.876 241.089565,119 L241.089565,117.968 C241.089565,117.092 241.561216,116.792 242.343468,116.792 L246.197206,116.792 L246.197206,116 L242.136401,116 C241.032046,116 240.307313,116.492 240.307313,117.716 L240.307313,119.228 C240.307313,120.452 241.032046,120.968 242.136401,120.968 L244.21857,120.968 C245.000822,120.968 245.46097,121.256 245.46097,122.132 L245.46097,123.392 C245.46097,124.28 245.000822,124.568 244.21857,124.568 L240.364832,124.568 L240.364832,125.36 L244.425637,125.36 C245.518488,125.36 246.254725,124.868 246.254725,123.644 L246.254725,121.904 C246.254725,120.692 245.518488,120.164 244.425637,120.164 L242.343468,120.164 Z M253.064914,124.628 L253.064914,125.36 L249.234182,125.36 C248.141331,125.36 247.405094,124.856 247.405094,123.62 L247.405094,120.104 C247.405094,118.88 248.152835,118.4 249.245686,118.4 L251.304848,118.4 C252.397699,118.4 253.133936,118.892 253.133936,120.116 L253.133936,121.004 L248.152835,123.068 C248.152835,124.304 248.41742,124.628 249.47576,124.628 L253.064914,124.628 Z M248.141331,120.332 L248.141331,122.3 L252.386196,120.536 L252.386196,120.224 C252.386196,119.384 251.960559,119.144 251.074774,119.144 L249.452753,119.144 C248.578472,119.144 248.141331,119.456 248.141331,120.332 Z M254.963024,120.296 C254.963024,119.42 255.446179,119.144 256.251438,119.144 L256.746097,119.144 L256.746097,118.4 L256.067379,118.4 C254.974528,118.4 254.226787,118.904 254.226787,120.128 L254.226787,125.36 L254.963024,125.36 L254.963024,120.296 Z M263.602301,118.4 L262.808546,118.4 L260.174199,124.4 L257.551356,118.4 L256.746097,118.4 L259.67954,125.156 C259.783073,125.396 259.944125,125.492 260.174199,125.492 C260.415776,125.492 260.565325,125.396 260.668858,125.156 L263.602301,118.4 Z M265.097781,118.4 L264.361545,118.4 L264.361545,125.36 L265.097781,125.36 L265.097781,118.4 Z M264.292523,117.428 C264.292523,117.68 264.488085,117.884 264.729663,117.884 C264.971241,117.884 265.166804,117.68 265.166804,117.428 C265.166804,117.176 264.971241,116.972 264.729663,116.972 C264.488085,116.972 264.292523,117.176 264.292523,117.428 Z M271.033689,125.36 L271.033689,124.628 L268.433854,124.628 C267.651602,124.628 267.168447,124.352 267.168447,123.464 L267.168447,120.296 C267.168447,119.42 267.651602,119.144 268.433854,119.144 L271.033689,119.144 L271.033689,118.4 L268.272802,118.4 C267.179951,118.4 266.43221,118.88 266.43221,120.104 L266.43221,123.632 C266.43221,124.856 267.179951,125.36 268.272802,125.36 L271.033689,125.36 Z M272.874281,118.4 L272.138044,118.4 L272.138044,125.36 L272.874281,125.36 L272.874281,118.4 Z M272.069022,117.428 C272.069022,117.68 272.264585,117.884 272.506163,117.884 C272.74774,117.884 272.943303,117.68 272.943303,117.428 C272.943303,117.176 272.74774,116.972 272.506163,116.972 C272.264585,116.972 272.069022,117.176 272.069022,117.428 Z M279.972062,120.104 L279.972062,123.644 C279.972062,124.868 279.224322,125.36 278.131471,125.36 L276.049302,125.36 C274.95645,125.36 274.20871,124.856 274.20871,123.632 L274.20871,120.116 C274.20871,118.892 274.95645,118.4 276.049302,118.4 L278.131471,118.4 C279.224322,118.4 279.972062,118.88 279.972062,120.104 Z M274.944947,120.296 L274.944947,123.464 C274.944947,124.352 275.439606,124.628 276.233361,124.628 L277.878389,124.628 C278.683648,124.628 279.235826,124.4 279.235826,123.464 L279.235826,120.296 C279.235826,119.36 278.683648,119.144 277.878389,119.144 L276.233361,119.144 C275.439606,119.144 274.944947,119.42 274.944947,120.296 Z M285.263763,123.5 C285.25226,124.376 284.803615,124.616 284.00986,124.616 L280.949877,124.616 L280.949877,125.36 L284.159408,125.36 C285.25226,125.36 286,124.892 286,123.668 L286,123.188 C286,121.928 285.25226,121.376 284.159408,121.376 L282.882498,121.376 C282.123254,121.376 281.628595,121.124 281.628595,120.296 C281.628595,119.396 282.077239,119.144 282.882498,119.144 L285.942482,119.144 L285.942482,118.4 L282.73295,118.4 C281.640099,118.4 280.892358,118.868 280.892358,120.092 L280.892358,120.296 C280.892358,121.556 281.640099,122.108 282.73295,122.108 L284.00986,122.108 C284.769104,122.108 285.263763,122.36 285.263763,123.188 L285.263763,123.5 Z" id="y-Servicios" fill="#FFFFFF"></path>
                    <path d="M195.85061,53.7037293 C194.112805,53.7037293 193.172764,54.5303867 193.172764,56.4302486 L193.172764,69.5310773 C193.172764,71.503453 194.117886,72.2962707 195.85061,72.2962707 L208,72.2962707 L208,77 L194.189024,77 C190.566057,77 188,75.2790055 188,71.6823204 L188,54.5303867 C188,50.9385359 190.54065,49 194.189024,49 L208,49 L208,53.7037293 L195.85061,53.7037293 Z" id="Shape" fill="#FFFFFF" fill-rule="nonzero"></path>
                    <path d="M210,78 L219.181298,51.2370433 C220.01736,48.815633 221.4638,48 223.048728,48 C224.633656,48 226.249359,48.7952421 227.049517,51.2166525 L236,77.9796092 L230.604064,77.9796092 L228.47031,72.0764656 L217.539949,72.0764656 L215.406195,77.9796092 L210,78 Z M223.048728,55.8198811 L219.047938,67.1367884 L227.008483,67.1367884 L223.048728,55.8198811 Z" id="Shape" fill="#FFFFFF" fill-rule="nonzero"></path>
                    <path d="M268.695431,66.1081594 C268.372566,65.8035651 268.114925,65.4371926 267.937983,65.0310505 L267.937983,76.9758496 L263,76.9758496 L263,49 L278.32377,49 C281.819687,49 284.237696,50.9320338 284.237696,54.5256167 L284.237696,60.3217181 C284.237696,64.374159 282.868462,66.4559255 277.440079,66.4559255 L275.012359,66.4559255 L285,77 L278.935555,77 L268.695431,66.1081594 Z M267.937983,62.770571 C268.502658,62.0415797 269.39368,61.6381916 270.317149,61.6934621 L276.736041,61.6934621 C278.396601,61.6934621 279.333701,60.8675177 279.333701,58.9692945 L279.333701,56.4238399 C279.333701,54.5207866 278.396601,53.6996722 276.736041,53.6996722 L267.937983,53.6996722 L267.937983,62.770571 Z" id="Shape" fill="#FFFFFF" fill-rule="nonzero"></path>
                    <path d="M311,71.6786455 C311,75.2729786 308.599451,77 305.152263,77 L295.847737,77 C292.424554,77 290,75.064962 290,71.4657913 L290,54.5342087 C290,50.9398756 292.400549,49 295.847737,49 L305.152263,49 C308.609053,49 311,50.935038 311,54.5342087 L311,71.6786455 Z M294.887517,69.5210781 C294.887517,71.4948169 295.780521,72.2881824 297.633745,72.2881824 L303.587106,72.2881824 C305.229081,72.2881824 306.155693,71.4996545 306.155693,69.5210781 L306.155693,56.4111956 C306.155693,54.5051831 305.229081,53.682792 303.587106,53.682792 L297.61454,53.682792 C295.761317,53.682792 294.868313,54.5100207 294.868313,56.4111956 L294.887517,69.5210781 Z" id="Shape" fill="#FFFFFF" fill-rule="nonzero"></path>
                    <path d="M246.506627,48 L249.742436,48 C252.888222,48 254.31858,49.7971164 254.31858,53.030896 L254.31858,54.215242 C254.31858,58.7672503 251.857964,59.215242 248.372093,60.8836251 L255.783946,68.576725 C255.921867,68.0860598 255.995866,67.5787036 256.004001,67.0679712 L256.004001,61.4603502 L258.004501,61.4603502 L258.004501,65.3377961 C258.004501,67.2276004 257.939485,69.1534501 257.414354,70.2760041 L260,73 L257.364341,73 L256.179045,71.7796087 C255.088772,72.9639547 253.533383,73 251.257814,73 L244.546137,73 C241.40035,73 240,71.1410917 240,68.030896 L240,66.2698249 C240,62.6138002 241.930483,61.8774459 245.2013,60.4356334 L244.92123,60.1472709 C243.24081,58.4170958 241.92048,57.0576725 241.92048,53.9680742 C241.930483,50.2399588 242.925731,48 246.506627,48 Z M244.451113,62.8094748 C242.895724,63.576725 242.115529,64.0298661 242.115529,66.2698249 C242.115529,69.1534501 242.270568,71.0484037 244.981245,71.0484037 L251.767942,71.0484037 C253.07827,71.0484037 254.073518,70.8218332 254.633658,70.1833162 L246.566642,61.7796087 L244.451113,62.8094748 Z M246.911728,50.0494336 C244.451113,50.0494336 243.985996,51.2698249 243.985996,54.0247168 C243.985996,57.0061792 245.326332,57.7116375 246.986747,59.5036045 L250.787697,57.6446962 C252.063016,57.0061792 252.253063,55.8166838 252.253063,53.9577755 C252.253063,51.1050463 251.907977,50.0442842 249.357339,50.0442842 L246.911728,50.0494336 Z" id="Shape" fill="#FFFFFF" fill-rule="nonzero"></path>
                    <polygon id="Shape" fill="url(#radialGradient-2)" fill-rule="nonzero" points="185 89 320 89 317.35076 85 188.31155 85"></polygon>
                    <polygon id="Shape" fill="url(#linearGradient-3)" fill-rule="nonzero" points="185 93 320 93 317.35076 89 188.31155 89"></polygon>
                    <circle id="Oval" fill="#FFFFFF" fill-rule="nonzero" cx="93" cy="76" r="36"></circle>
                    <path d="M93,78 L93,79" id="Shape" stroke="#2E2E2E" stroke-width="1.5"></path>
                    <path d="M93,83 L93,168" id="Shape" stroke="#2E2E2E" stroke-dasharray="3"></path>
                    <path d="M93,169 L93,170" id="Shape" stroke="#2E2E2E" stroke-dasharray="3"></path>
                    <path d="M95,81 L155,141" id="Shape" stroke="#2E2E2E" stroke-dasharray="3"></path>
                    <path d="M157,142 L158,143" id="Shape" stroke="#2E2E2E" stroke-dasharray="3"></path>
                    <path d="M93,136.041065 C62.3734407,136.03881 36.9006339,112.9389 34.5103851,83 C30.4394091,100.463032 34.6975122,118.7935 46.079941,132.805131 C57.4623699,146.816761 74.7310055,154.985445 93,155 L93,136.041065 Z" id="Shape" fill="url(#linearGradient-3)" fill-rule="nonzero"></path>
                    <path d="M136,38.3720345 C157.484033,59.9494367 158.523425,94.1939722 138.386521,117 C153.964113,107.547543 164.330975,91.6154832 166.553905,73.7116428 C168.776835,55.8078025 162.614027,37.8797303 149.809186,25 L136,38.3720345 Z" id="Shape" fill="#FFFFFF" fill-rule="nonzero" transform="translate(151.500000, 71.000000) rotate(2.000000) translate(-151.500000, -71.000000) "></path>
                    <path d="M39.2190345,133.316222 C24.8403792,119.159548 16.0214026,100.047536 16.0214026,79.0187885 C16.0214026,37.8316222 49.404978,1.31806982 93,0.337063655 C90.5108961,0.12073922 87.9962892,0 85.4561791,0 C38.2550168,0 0.000346724088,38.4705339 0.000346724088,85.9311088 C-0.0647804606,108.790888 9.04735949,130.746635 25.3453408,147 L39.2190345,133.316222 Z" id="Shape" fill="url(#linearGradient-4)" fill-rule="nonzero"></path>
                    <circle id="Oval-Copy" stroke="#2E2E2E" stroke-dasharray="3" fill-rule="nonzero" cx="93.5" cy="76.5" r="58.5"></circle>
                </g>
            </g>
        </g>
    </g>
</svg>