<?xml version="1.0" encoding="UTF-8"?>
<svg width="408px" height="178px" viewBox="0 0 408 178" version="1.1" xmlns="http://www.w3.org/2000/svg" xmlns:xlink="http://www.w3.org/1999/xlink">
    <!-- Generator: Sketch 46.2 (44496) - http://www.bohemiancoding.com/sketch -->
    <title>logosvg</title>
    <desc>Created with Sketch.</desc>
    <defs>
        <filter x="-1.9%" y="-3.2%" width="103.5%" height="108.2%" filterUnits="objectBoundingBox" id="filter-1">
            <feOffset dx="-1" dy="1" in="SourceAlpha" result="shadowOffsetOuter1"></feOffset>
            <feGaussianBlur stdDeviation="2" in="shadowOffsetOuter1" result="shadowBlurOuter1"></feGaussianBlur>
            <feColorMatrix values="0 0 0 0 0   0 0 0 0 0   0 0 0 0 0  0 0 0 0.5 0" type="matrix" in="shadowBlurOuter1" result="shadowMatrixOuter1"></feColorMatrix>
            <feMerge>
                <feMergeNode in="shadowMatrixOuter1"></feMergeNode>
                <feMergeNode in="SourceGraphic"></feMergeNode>
            </feMerge>
        </filter>
        <linearGradient x1="50%" y1="50%" x2="124.281754%" y2="40.4968918%" id="linearGradient-2">
            <stop stop-color="#FF7F00" offset="0%"></stop>
            <stop stop-color="#E5472C" offset="100%"></stop>
        </linearGradient>
        <linearGradient x1="22.3111979%" y1="92.9179152%" x2="70.4492188%" y2="37.8558433%" id="linearGradient-3">
            <stop stop-color="#000000" offset="0%"></stop>
            <stop stop-color="#505050" offset="100%"></stop>
        </linearGradient>
        <linearGradient x1="-13.5143649%" y1="53.1883446%" x2="83.7701613%" y2="53.1883419%" id="linearGradient-4">
            <stop stop-color="#000000" offset="0%"></stop>
            <stop stop-color="#505050" offset="100%"></stop>
        </linearGradient>
    </defs>
    <g id="Arq-Gabriela-Rojas" stroke="none" stroke-width="1" fill="none" fill-rule="evenodd">
        <g id="Desktop-HD-Copy" transform="translate(-51.000000, -6956.000000)">
            <g id="Footer" transform="translate(0.000000, 6779.000000)">
                <g id="logosvg" filter="url(#filter-1)" transform="translate(56.000000, 180.000000)">
                    <g id="Group-8" transform="translate(179.000000, 24.000000)">
                        <path d="M1.26118601,99.8979392 L0,99.8979392 L5.17269043,85.8017664 C5.37374907,85.2237488 5.68447606,85 6.06831528,85 C6.4521545,85 6.76288148,85.2237488 6.96394012,85.8017664 L12.1000744,99.8979392 L10.8388884,99.8979392 L9.43147796,96.1501472 L2.66859648,96.1501472 L1.26118601,99.8979392 Z M9.04763874,94.9754661 L6.05003722,86.9578018 L3.0524357,94.9754661 L9.04763874,94.9754661 Z M14.2751633,92.0294406 C14.2751633,90.6683023 15.0428418,90.2394504 16.3223058,90.2394504 L17.1082623,90.2394504 L17.1082623,89.0834151 L16.0298569,89.0834151 C14.2934414,89.0834151 13.1053676,89.8665358 13.1053676,91.7684004 L13.1053676,99.8979392 L14.2751633,99.8979392 L14.2751633,92.0294406 Z M25.826896,99.8979392 L20.9466545,99.8979392 C19.210239,99.8979392 18.0221652,99.1521099 18.0221652,97.2502453 L18.0221652,91.7684004 C18.0221652,89.8665358 19.210239,89.0834151 20.9466545,89.0834151 L24.0722025,89.0834151 C25.808618,89.0834151 26.9966918,89.8665358 26.9966918,91.7684004 L26.9966918,104 L25.826896,104 L25.826896,99.8979392 Z M25.826896,98.7605496 L25.826896,92.0294406 C25.826896,90.6683023 25.0409395,90.2208047 23.7797535,90.2208047 L21.2025473,90.2208047 C19.9779175,90.2208047 19.191961,90.6683023 19.191961,92.0294406 L19.191961,96.9519136 C19.191961,98.4062807 20.0510297,98.7605496 21.3122157,98.7605496 L25.826896,98.7605496 Z M30.1770739,89.0834151 L29.0072781,89.0834151 L29.0072781,97.2129539 C29.0072781,99.1148184 30.1953519,99.8979392 31.9317674,99.8979392 L35.1487056,99.8979392 C36.8851212,99.8979392 38.0731949,99.1148184 38.0731949,97.2129539 L38.0731949,89.0834151 L36.9033992,89.0834151 L36.9033992,96.9519136 C36.9033992,98.3316977 36.1174427,98.7605496 34.8928128,98.7605496 L32.2242164,98.7605496 C30.9447523,98.7605496 30.1770739,98.3316977 30.1770739,96.9519136 L30.1770739,89.0834151 Z M41.4546357,89.0834151 L40.28484,89.0834151 L40.28484,99.8979392 L41.4546357,99.8979392 L41.4546357,89.0834151 Z M40.1751716,87.5731109 C40.1751716,87.9646712 40.4858986,88.2816487 40.8697378,88.2816487 C41.253577,88.2816487 41.564304,87.9646712 41.564304,87.5731109 C41.564304,87.1815505 41.253577,86.8645731 40.8697378,86.8645731 C40.4858986,86.8645731 40.1751716,87.1815505 40.1751716,87.5731109 Z M43.757671,85.3542689 L43.757671,99.8979392 L44.9274667,99.8979392 L44.9274667,90.2208047 L47.851956,90.2208047 L47.851956,89.0834151 L44.9274667,89.0834151 L44.9274667,85.3542689 L43.757671,85.3542689 Z M57.7586635,98.7605496 L57.7586635,99.8979392 L51.6720701,99.8979392 C49.9356546,99.8979392 48.7658589,99.1148184 48.7658589,97.1943081 L48.7658589,91.7311089 C48.7658589,89.8292444 49.9539327,89.0834151 51.6903482,89.0834151 L54.9621206,89.0834151 C56.6985361,89.0834151 57.8683318,89.8478901 57.8683318,91.7497547 L57.8683318,93.1295388 L49.9539327,96.3366045 C49.9539327,98.2571148 50.374328,98.7605496 52.0559094,98.7605496 L57.7586635,98.7605496 Z M49.9356546,92.0853778 L49.9356546,95.1432777 L56.680258,92.4023553 L56.680258,91.9175662 C56.680258,90.6123651 56.0039699,90.2394504 54.5965594,90.2394504 L52.0193532,90.2394504 C50.6302208,90.2394504 49.9356546,90.7242395 49.9356546,92.0853778 Z M66.8245803,99.8979392 L66.8245803,98.7605496 L62.6937391,98.7605496 C61.4508312,98.7605496 60.6831528,98.3316977 60.6831528,96.9519136 L60.6831528,92.0294406 C60.6831528,90.6683023 61.4508312,90.2394504 62.6937391,90.2394504 L66.8245803,90.2394504 L66.8245803,89.0834151 L62.4378463,89.0834151 C60.7014308,89.0834151 59.513357,89.8292444 59.513357,91.7311089 L59.513357,97.2129539 C59.513357,99.1148184 60.7014308,99.8979392 62.4378463,99.8979392 L66.8245803,99.8979392 Z M68.4696055,85.3542689 L68.4696055,99.8979392 L69.6394012,99.8979392 L69.6394012,90.2208047 L72.5638905,90.2208047 L72.5638905,89.0834151 L69.6394012,89.0834151 L69.6394012,85.3542689 L68.4696055,85.3542689 Z M74.7389794,89.0834151 L73.5691837,89.0834151 L73.5691837,97.2129539 C73.5691837,99.1148184 74.7572575,99.8979392 76.493673,99.8979392 L79.7106112,99.8979392 C81.4470267,99.8979392 82.6351005,99.1148184 82.6351005,97.2129539 L82.6351005,89.0834151 L81.4653048,89.0834151 L81.4653048,96.9519136 C81.4653048,98.3316977 80.6793483,98.7605496 79.4547184,98.7605496 L76.7861219,98.7605496 C75.5066578,98.7605496 74.7389794,98.3316977 74.7389794,96.9519136 L74.7389794,89.0834151 Z M85.8154826,92.0294406 C85.8154826,90.6683023 86.583161,90.2394504 87.8626251,90.2394504 L88.6485816,90.2394504 L88.6485816,89.0834151 L87.5701762,89.0834151 C85.8337606,89.0834151 84.6456869,89.8665358 84.6456869,91.7684004 L84.6456869,99.8979392 L85.8154826,99.8979392 L85.8154826,92.0294406 Z M92.3041932,99.8979392 C90.5677777,99.8979392 89.3797039,99.1148184 89.3797039,97.2129539 L89.3797039,95.404318 C89.3797039,93.5024534 90.5677777,92.7566241 92.3041932,92.7566241 L97.3306592,92.7566241 L97.3306592,92.0294406 C97.3306592,90.6496565 96.5629807,90.2208047 95.3200728,90.2208047 L89.4710942,90.2208047 L89.4710942,89.0834151 L95.5759656,89.0834151 C97.3123811,89.0834151 98.5004549,89.8292444 98.5004549,91.7311089 L98.5004549,97.2129539 C98.5004549,99.1148184 97.3123811,99.8979392 95.5759656,99.8979392 L92.3041932,99.8979392 Z M95.3200728,98.7605496 C96.9102638,98.7605496 97.3306592,98.1825319 97.3306592,96.2433759 L97.3306592,93.9126595 L92.560086,93.9126595 C91.3720122,93.9126595 90.5494996,94.2855741 90.5494996,95.609421 L90.5494996,96.8400393 C90.5494996,98.313052 91.1526755,98.7605496 92.560086,98.7605496 L95.3200728,98.7605496 Z M104.934331,94.844946 L110.052188,94.844946 L110.052188,93.6143278 L104.934331,93.6143278 L104.934331,94.844946 Z M126.082044,86.5848871 L126.082044,85.3542689 L119.575056,85.3542689 C117.820362,85.3542689 116.668845,86.1560353 116.668845,88.0578999 L116.668845,97.2315996 C116.668845,99.1334642 117.820362,99.8979392 119.575056,99.8979392 L126.082044,99.8979392 L126.082044,98.6673209 L119.904061,98.6673209 C118.661153,98.6673209 117.911753,98.2198234 117.911753,96.8400393 L117.911753,88.4121688 C117.911753,87.0510304 118.661153,86.5848871 119.904061,86.5848871 L126.082044,86.5848871 Z M136.884377,91.7311089 L136.884377,97.2315996 C136.884377,99.1334642 135.696303,99.8979392 133.959888,99.8979392 L130.651559,99.8979392 C128.915143,99.8979392 127.72707,99.1148184 127.72707,97.2129539 L127.72707,91.7497547 C127.72707,89.8478901 128.915143,89.0834151 130.651559,89.0834151 L133.959888,89.0834151 C135.696303,89.0834151 136.884377,89.8292444 136.884377,91.7311089 Z M128.896865,92.0294406 L128.896865,96.9519136 C128.896865,98.3316977 129.682822,98.7605496 130.944008,98.7605496 L133.55777,98.7605496 C134.837234,98.7605496 135.714581,98.4062807 135.714581,96.9519136 L135.714581,92.0294406 C135.714581,90.5750736 134.837234,90.2394504 133.55777,90.2394504 L130.944008,90.2394504 C129.682822,90.2394504 128.896865,90.6683023 128.896865,92.0294406 Z M146.516913,99.8979392 L147.686709,99.8979392 L147.686709,91.7311089 C147.686709,89.8292444 146.498635,89.0834151 144.76222,89.0834151 L141.545282,89.0834151 C139.808866,89.0834151 138.620792,89.8292444 138.620792,91.7311089 L138.620792,99.8979392 L139.790588,99.8979392 L139.790588,92.0294406 C139.790588,90.6683023 140.558266,90.2394504 141.801174,90.2394504 L144.469771,90.2394504 C145.730957,90.2394504 146.516913,90.6683023 146.516913,92.0294406 L146.516913,99.8979392 Z M156.003226,97.0078508 C155.984947,98.3689892 155.272103,98.7419038 154.010917,98.7419038 L149.148954,98.7419038 L149.148954,99.8979392 L154.248532,99.8979392 C155.984947,99.8979392 157.173021,99.1707556 157.173021,97.2688911 L157.173021,96.5230618 C157.173021,94.5652601 155.984947,93.7075564 154.248532,93.7075564 L152.219668,93.7075564 C151.013316,93.7075564 150.227359,93.3159961 150.227359,92.0294406 C150.227359,90.6310108 150.940203,90.2394504 152.219668,90.2394504 L157.081631,90.2394504 L157.081631,89.0834151 L151.982053,89.0834151 C150.245637,89.0834151 149.057563,89.8105986 149.057563,91.7124632 L149.057563,92.0294406 C149.057563,93.9872424 150.245637,94.844946 151.982053,94.844946 L154.010917,94.844946 C155.217269,94.844946 156.003226,95.2365064 156.003226,96.5230618 L156.003226,97.0078508 Z M158.818046,85.3542689 L158.818046,99.8979392 L159.987842,99.8979392 L159.987842,90.2208047 L162.912331,90.2208047 L162.912331,89.0834151 L159.987842,89.0834151 L159.987842,85.3542689 L158.818046,85.3542689 Z M165.08742,92.0294406 C165.08742,90.6683023 165.855099,90.2394504 167.134563,90.2394504 L167.920519,90.2394504 L167.920519,89.0834151 L166.842114,89.0834151 C165.105698,89.0834151 163.917625,89.8665358 163.917625,91.7684004 L163.917625,99.8979392 L165.08742,99.8979392 L165.08742,92.0294406 Z M170.095608,89.0834151 L168.925813,89.0834151 L168.925813,97.2129539 C168.925813,99.1148184 170.113886,99.8979392 171.850302,99.8979392 L175.06724,99.8979392 C176.803656,99.8979392 177.991729,99.1148184 177.991729,97.2129539 L177.991729,89.0834151 L176.821934,89.0834151 L176.821934,96.9519136 C176.821934,98.3316977 176.035977,98.7605496 174.811347,98.7605496 L172.142751,98.7605496 C170.863287,98.7605496 170.095608,98.3316977 170.095608,96.9519136 L170.095608,89.0834151 Z M187.222149,99.8979392 L187.222149,98.7605496 L183.091308,98.7605496 C181.8484,98.7605496 181.080721,98.3316977 181.080721,96.9519136 L181.080721,92.0294406 C181.080721,90.6683023 181.8484,90.2394504 183.091308,90.2394504 L187.222149,90.2394504 L187.222149,89.0834151 L182.835415,89.0834151 C181.098999,89.0834151 179.910925,89.8292444 179.910925,91.7311089 L179.910925,97.2129539 C179.910925,99.1148184 181.098999,99.8979392 182.835415,99.8979392 L187.222149,99.8979392 Z M195.995617,99.8979392 L195.995617,98.7605496 L191.864775,98.7605496 C190.621868,98.7605496 189.854189,98.3316977 189.854189,96.9519136 L189.854189,92.0294406 C189.854189,90.6683023 190.621868,90.2394504 191.864775,90.2394504 L195.995617,90.2394504 L195.995617,89.0834151 L191.608883,89.0834151 C189.872467,89.0834151 188.684393,89.8292444 188.684393,91.7311089 L188.684393,97.2129539 C188.684393,99.1148184 189.872467,99.8979392 191.608883,99.8979392 L195.995617,99.8979392 Z M198.920106,89.0834151 L197.75031,89.0834151 L197.75031,99.8979392 L198.920106,99.8979392 L198.920106,89.0834151 Z M197.640642,87.5731109 C197.640642,87.9646712 197.951369,88.2816487 198.335208,88.2816487 C198.719047,88.2816487 199.029774,87.9646712 199.029774,87.5731109 C199.029774,87.1815505 198.719047,86.8645731 198.335208,86.8645731 C197.951369,86.8645731 197.640642,87.1815505 197.640642,87.5731109 Z M210.197668,91.7311089 L210.197668,97.2315996 C210.197668,99.1334642 209.009594,99.8979392 207.273178,99.8979392 L203.96485,99.8979392 C202.228434,99.8979392 201.040361,99.1148184 201.040361,97.2129539 L201.040361,91.7497547 C201.040361,89.8478901 202.228434,89.0834151 203.96485,89.0834151 L207.273178,89.0834151 C209.009594,89.0834151 210.197668,89.8292444 210.197668,91.7311089 Z M202.210156,92.0294406 L202.210156,96.9519136 C202.210156,98.3316977 202.996113,98.7605496 204.257299,98.7605496 L206.871061,98.7605496 C208.150525,98.7605496 209.027872,98.4062807 209.027872,96.9519136 L209.027872,92.0294406 C209.027872,90.5750736 208.150525,90.2394504 206.871061,90.2394504 L204.257299,90.2394504 C202.996113,90.2394504 202.210156,90.6683023 202.210156,92.0294406 Z M219.830204,99.8979392 L221,99.8979392 L221,91.7311089 C221,89.8292444 219.811926,89.0834151 218.075511,89.0834151 L214.858572,89.0834151 C213.122157,89.0834151 211.934083,89.8292444 211.934083,91.7311089 L211.934083,99.8979392 L213.103879,99.8979392 L213.103879,92.0294406 C213.103879,90.6683023 213.871557,90.2394504 215.114465,90.2394504 L217.783062,90.2394504 C219.044248,90.2394504 219.830204,90.6683023 219.830204,92.0294406 L219.830204,99.8979392 Z" id="Arquitectura---Const" fill="#FFFFFF"></path>
                        <path d="M78.1984388,122.661 C76.9782251,122.661 76.1832375,122.243 76.1832375,120.913 L76.1832375,112.8 L75,112.8 L75,121.122 C75,123.06 76.2017256,123.82 77.9580937,123.82 L82.9313887,123.82 L82.9313887,124.998 C82.9313887,126.404 82.1548891,126.841 80.8976993,126.841 L75.1109285,126.841 L75.1109285,128 L81.1750205,128 C82.9313887,128 84.1331142,127.24 84.1331142,125.302 L84.1331142,112.8 L82.9313887,112.8 L82.9313887,122.661 L78.1984388,122.661 Z M94.8377157,115.593 C93.5805259,115.593 92.8225144,115.137 92.8225144,113.75 L92.8225144,112.116 C92.8225144,110.729 93.5805259,110.254 94.8377157,110.254 L101.031224,110.254 L101.031224,109 L94.5049302,109 C92.730074,109 91.5653246,109.779 91.5653246,111.717 L91.5653246,114.111 C91.5653246,116.049 92.730074,116.866 94.5049302,116.866 L97.8512736,116.866 C99.1084634,116.866 99.8479869,117.322 99.8479869,118.709 L99.8479869,120.704 C99.8479869,122.11 99.1084634,122.566 97.8512736,122.566 L91.657765,122.566 L91.657765,123.82 L98.1840592,123.82 C99.9404273,123.82 101.123665,123.041 101.123665,121.103 L101.123665,118.348 C101.123665,116.429 99.9404273,115.593 98.1840592,115.593 L94.8377157,115.593 Z M112.068611,122.661 L112.068611,123.82 L105.912079,123.82 C104.155711,123.82 102.972473,123.022 102.972473,121.065 L102.972473,115.498 C102.972473,113.56 104.174199,112.8 105.930567,112.8 L109.239934,112.8 C110.996302,112.8 112.17954,113.579 112.17954,115.517 L112.17954,116.923 L104.174199,120.191 C104.174199,122.148 104.599425,122.661 106.300329,122.661 L112.068611,122.661 Z M104.155711,115.859 L104.155711,118.975 L110.977814,116.182 L110.977814,115.688 C110.977814,114.358 110.293755,113.978 108.870173,113.978 L106.263353,113.978 C104.858258,113.978 104.155711,114.472 104.155711,115.859 Z M115.119145,115.802 C115.119145,114.415 115.895645,113.978 117.189811,113.978 L117.984799,113.978 L117.984799,112.8 L116.894002,112.8 C115.137634,112.8 113.935908,113.598 113.935908,115.536 L113.935908,123.82 L115.119145,123.82 L115.119145,115.802 Z M129.003698,112.8 L127.72802,112.8 L123.494248,122.3 L119.278965,112.8 L117.984799,112.8 L122.69926,123.497 C122.865653,123.877 123.124486,124.029 123.494248,124.029 C123.882498,124.029 124.122843,123.877 124.289236,123.497 L129.003698,112.8 Z M131.407149,112.8 L130.223911,112.8 L130.223911,123.82 L131.407149,123.82 L131.407149,112.8 Z M130.112983,111.261 C130.112983,111.66 130.42728,111.983 130.81553,111.983 C131.20378,111.983 131.518077,111.66 131.518077,111.261 C131.518077,110.862 131.20378,110.539 130.81553,110.539 C130.42728,110.539 130.112983,110.862 130.112983,111.261 Z M140.947001,123.82 L140.947001,122.661 L136.768694,122.661 C135.511504,122.661 134.735004,122.224 134.735004,120.818 L134.735004,115.802 C134.735004,114.415 135.511504,113.978 136.768694,113.978 L140.947001,113.978 L140.947001,112.8 L136.50986,112.8 C134.753492,112.8 133.551767,113.56 133.551767,115.498 L133.551767,121.084 C133.551767,123.022 134.753492,123.82 136.50986,123.82 L140.947001,123.82 Z M143.905094,112.8 L142.721857,112.8 L142.721857,123.82 L143.905094,123.82 L143.905094,112.8 Z M142.610929,111.261 C142.610929,111.66 142.925226,111.983 143.313476,111.983 C143.701726,111.983 144.016023,111.66 144.016023,111.261 C144.016023,110.862 143.701726,110.539 143.313476,110.539 C142.925226,110.539 142.610929,110.862 142.610929,111.261 Z M155.312243,115.498 L155.312243,121.103 C155.312243,123.041 154.110518,123.82 152.35415,123.82 L149.007806,123.82 C147.251438,123.82 146.049712,123.022 146.049712,121.084 L146.049712,115.517 C146.049712,113.579 147.251438,112.8 149.007806,112.8 L152.35415,112.8 C154.110518,112.8 155.312243,113.56 155.312243,115.498 Z M147.23295,115.802 L147.23295,120.818 C147.23295,122.224 148.027938,122.661 149.303615,122.661 L151.947412,122.661 C153.241578,122.661 154.129006,122.3 154.129006,120.818 L154.129006,115.802 C154.129006,114.32 153.241578,113.978 151.947412,113.978 L149.303615,113.978 C148.027938,113.978 147.23295,114.415 147.23295,115.802 Z M163.816763,120.875 C163.798274,122.262 163.077239,122.642 161.801561,122.642 L156.88373,122.642 L156.88373,123.82 L162.041906,123.82 C163.798274,123.82 165,123.079 165,121.141 L165,120.381 C165,118.386 163.798274,117.512 162.041906,117.512 L159.989729,117.512 C158.769515,117.512 157.974528,117.113 157.974528,115.802 C157.974528,114.377 158.695563,113.978 159.989729,113.978 L164.90756,113.978 L164.90756,112.8 L159.749384,112.8 C157.993016,112.8 156.79129,113.541 156.79129,115.479 L156.79129,115.802 C156.79129,117.797 157.993016,118.671 159.749384,118.671 L161.801561,118.671 C163.021775,118.671 163.816763,119.07 163.816763,120.381 L163.816763,120.875 Z" id="y-Servicios" fill="#FFFFFF"></path>
                        <path d="M20.5609756,9.55956492 C17.7804878,9.55956492 16.2764228,10.8881215 16.2764228,13.941471 L16.2764228,34.9963743 C16.2764228,38.1662638 17.7886179,39.4404351 20.5609756,39.4404351 L40,39.4404351 L40,47 L17.902439,47 C12.1056911,47 8,44.234116 8,38.4537293 L8,10.8881215 C8,5.11550414 12.0650407,2 17.902439,2 L40,2 L40,9.55956492 L20.5609756,9.55956492 Z" id="Shape" fill="#FFFFFF" fill-rule="nonzero"></path>
                        <path d="M43,48 L57.8313277,5.17926933 C59.1818899,1.30501274 61.5184455,0 64.0787138,0 C66.638982,0 69.2489643,1.27238743 70.5415269,5.14664401 L85,47.9673747 L76.2834879,47.9673747 L72.8366542,38.5223449 L55.1799171,38.5223449 L51.7330834,47.9673747 L43,48 Z M64.0787138,12.5118097 L57.6159006,30.6188615 L70.4752417,30.6188615 L64.0787138,12.5118097 Z" id="Shape" fill="#FFFFFF" fill-rule="nonzero"></path>
                        <path d="M137.060914,29.4952562 C136.547265,29.0057296 136.13738,28.4169166 135.855882,27.7641884 L135.855882,46.9611868 L128,46.9611868 L128,2 L152.378724,2 C157.940411,2 161.787243,5.10505434 161.787243,10.8804554 L161.787243,20.1956184 C161.787243,26.7084699 159.608916,30.0541659 150.972854,30.0541659 L147.110572,30.0541659 L163,47 L153.352019,47 L137.060914,29.4952562 Z M135.855882,24.1312748 C136.754229,22.9596817 138.171764,22.3113794 139.640918,22.400207 L149.852792,22.400207 C152.494593,22.400207 153.985434,21.0727963 153.985434,18.0220804 L153.985434,13.9311713 C153.985434,10.8726928 152.494593,9.55304468 149.852792,9.55304468 L135.855882,9.55304468 L135.855882,24.1312748 Z" id="Shape" fill="#FFFFFF" fill-rule="nonzero"></path>
                        <path d="M205,38.4478231 C205,44.2244299 201.113397,47 195.532236,47 L180.467764,47 C174.925469,47 171,43.8901175 171,38.105736 L171,10.894264 C171,5.11765722 174.886603,2 180.467764,2 L195.532236,2 C201.128944,2 205,5.10988252 205,10.894264 L205,38.4478231 Z M178.913123,34.9803041 C178.913123,38.1523842 180.358939,39.4274361 183.359396,39.4274361 L192.998171,39.4274361 C195.656607,39.4274361 197.156836,38.1601589 197.156836,34.9803041 L197.156836,13.91085 C197.156836,10.8476158 195.656607,9.52591569 192.998171,9.52591569 L183.328304,9.52591569 C180.327846,9.52591569 178.88203,10.8553905 178.88203,13.91085 L178.913123,34.9803041 Z" id="Shape" fill="#FFFFFF" fill-rule="nonzero"></path>
                        <path d="M101.410603,0 L106.587897,0 C111.621155,0 113.909727,2.8753862 113.909727,8.04943357 L113.909727,9.94438723 C113.909727,17.2276004 109.972743,17.9443872 104.395349,20.6138002 L116.254314,32.92276 C116.474988,32.1376957 116.593386,31.3259257 116.606402,30.5087539 L116.606402,21.5365602 L119.807202,21.5365602 L119.807202,27.7404737 C119.807202,30.7641607 119.703176,33.8455201 118.862966,35.6416066 L123,40 L118.782946,40 L116.886472,38.0473738 C115.142036,39.9423275 112.653413,40 109.012503,40 L98.2738185,40 C93.2405601,40 91,37.0257467 91,32.0494336 L91,29.2317199 C91,23.3820803 94.0887722,22.2039135 99.3220805,19.8970134 L98.8739685,19.4356334 C96.1852963,16.6673532 94.0727682,14.492276 94.0727682,9.54891864 C94.0887722,3.58393409 95.6811703,0 101.410603,0 Z M98.1217804,23.6951596 C95.6331583,24.92276 94.3848462,25.6477858 94.3848462,29.2317199 C94.3848462,33.8455201 94.6329082,36.8774459 98.9699925,36.8774459 L109.828707,36.8774459 C111.925231,36.8774459 113.517629,36.5149331 114.413853,35.4933059 L101.506627,22.0473738 L98.1217804,23.6951596 Z M102.058765,3.27909372 C98.1217804,3.27909372 97.3775944,5.23171988 97.3775944,9.63954686 C97.3775944,14.4098867 99.5221305,15.53862 102.178795,18.4057673 L108.260315,15.4315139 C110.300825,14.4098867 110.604901,12.5066941 110.604901,9.53244078 C110.604901,4.96807415 110.052763,3.27085479 105.971743,3.27085479 L102.058765,3.27909372 Z" id="Shape" fill="#FFFFFF" fill-rule="nonzero"></path>
                        <polygon id="Shape" fill="url(#linearGradient-2)" fill-rule="nonzero" points="219 65 214.761216 59 8.29847951 59 3 65"></polygon>
                        <polygon id="Shape" fill="url(#linearGradient-3)" fill-rule="nonzero" points="219 75 214.761216 69 8.29847951 69 3 75"></polygon>
                    </g>
                    <circle id="Oval" fill="#FFFFFF" fill-rule="nonzero" cx="93" cy="76" r="36"></circle>
                    <path d="M93,78 L93,79" id="Shape" stroke="#2E2E2E" stroke-width="1.5"></path>
                    <path d="M93,83 L93,168" id="Shape" stroke="#2E2E2E" stroke-dasharray="3"></path>
                    <path d="M93,169 L93,170" id="Shape" stroke="#2E2E2E" stroke-dasharray="3"></path>
                    <path d="M95,81 L155,141" id="Shape" stroke="#2E2E2E" stroke-dasharray="3"></path>
                    <path d="M157,142 L158,143" id="Shape" stroke="#2E2E2E" stroke-dasharray="3"></path>
                    <path d="M93,136.041065 C62.3734407,136.03881 36.9006339,112.9389 34.5103851,83 C30.4394091,100.463032 34.6975122,118.7935 46.079941,132.805131 C57.4623699,146.816761 74.7310055,154.985445 93,155 L93,136.041065 Z" id="Shape" fill="url(#linearGradient-3)" fill-rule="nonzero"></path>
                    <path d="M136,38.3720345 C157.484033,59.9494367 158.523425,94.1939722 138.386521,117 C153.964113,107.547543 164.330975,91.6154832 166.553905,73.7116428 C168.776835,55.8078025 162.614027,37.8797303 149.809186,25 L136,38.3720345 Z" id="Shape" fill="#FFFFFF" fill-rule="nonzero" transform="translate(151.500000, 71.000000) rotate(2.000000) translate(-151.500000, -71.000000) "></path>
                    <path d="M39.2190345,133.316222 C24.8403792,119.159548 16.0214026,100.047536 16.0214026,79.0187885 C16.0214026,37.8316222 49.404978,1.31806982 93,0.337063655 C90.5108961,0.12073922 87.9962892,0 85.4561791,0 C38.2550168,0 0.000346724088,38.4705339 0.000346724088,85.9311088 C-0.0647804606,108.790888 9.04735949,130.746635 25.3453408,147 L39.2190345,133.316222 Z" id="Shape" fill="url(#linearGradient-4)" fill-rule="nonzero"></path>
                    <circle id="Oval-Copy" stroke="#2E2E2E" stroke-dasharray="3" fill-rule="nonzero" cx="93.5" cy="76.5" r="58.5"></circle>
                </g>
            </g>
        </g>
    </g>
</svg>