<?xml version="1.0" encoding="UTF-8"?>
<svg width="354px" height="152px" viewBox="0 0 354 152" version="1.1" xmlns="http://www.w3.org/2000/svg" xmlns:xlink="http://www.w3.org/1999/xlink">
    <!-- Generator: Sketch 46.2 (44496) - http://www.bohemiancoding.com/sketch -->
    <title>logo</title>
    <desc>Created with Sketch.</desc>
    <defs>
        <filter x="-2.5%" y="-3.8%" width="104.0%" height="109.7%" filterUnits="objectBoundingBox" id="filter-1">
            <feOffset dx="-1" dy="1" in="SourceAlpha" result="shadowOffsetOuter1"></feOffset>
            <feGaussianBlur stdDeviation="2" in="shadowOffsetOuter1" result="shadowBlurOuter1"></feGaussianBlur>
            <feColorMatrix values="0 0 0 0 0   0 0 0 0 0   0 0 0 0 0  0 0 0 0.5 0" type="matrix" in="shadowBlurOuter1" result="shadowMatrixOuter1"></feColorMatrix>
            <feMerge>
                <feMergeNode in="shadowMatrixOuter1"></feMergeNode>
                <feMergeNode in="SourceGraphic"></feMergeNode>
            </feMerge>
        </filter>
        <linearGradient x1="53.9257813%" y1="100%" x2="53.9257824%" y2="-13.264974%" id="linearGradient-2">
            <stop stop-color="#000000" offset="0%"></stop>
            <stop stop-color="#505050" offset="100%"></stop>
        </linearGradient>
        <linearGradient x1="22.3111979%" y1="92.9179152%" x2="70.4492188%" y2="37.8558433%" id="linearGradient-3">
            <stop stop-color="#000000" offset="0%"></stop>
            <stop stop-color="#505050" offset="100%"></stop>
        </linearGradient>
        <radialGradient cx="50%" cy="50%" fx="50%" fy="50%" r="74.8871688%" gradientTransform="translate(0.500000,0.500000),scale(1.000000,0.794118),rotate(-9.151784),translate(-0.500000,-0.500000)" id="radialGradient-4">
            <stop stop-color="#F6F6F6" offset="0%"></stop>
            <stop stop-color="#FF7F00" offset="0%"></stop>
            <stop stop-color="#E5472C" offset="100%"></stop>
        </radialGradient>
        <linearGradient x1="50%" y1="50%" x2="124.281754%" y2="40.4968918%" id="linearGradient-5">
            <stop stop-color="#FF7F00" offset="0%"></stop>
            <stop stop-color="#E5472C" offset="100%"></stop>
        </linearGradient>
        <radialGradient cx="50%" cy="50%" fx="50%" fy="50%" r="50%" id="radialGradient-6">
            <stop stop-color="#F6F6F6" offset="0%"></stop>
            <stop stop-color="#FF7F00" offset="0%"></stop>
            <stop stop-color="#E5472C" offset="100%"></stop>
        </radialGradient>
        <radialGradient cx="50%" cy="50%" fx="50%" fy="50%" r="74.8871688%" gradientTransform="translate(0.500000,0.500000),scale(1.000000,0.333333),rotate(-20.996794),translate(-0.500000,-0.500000)" id="radialGradient-7">
            <stop stop-color="#F6F6F6" offset="0%"></stop>
            <stop stop-color="#FF7F00" offset="0%"></stop>
            <stop stop-color="#E5472C" offset="100%"></stop>
        </radialGradient>
        <linearGradient x1="-13.5143649%" y1="53.1883446%" x2="83.7701613%" y2="53.1883419%" id="linearGradient-8">
            <stop stop-color="#000000" offset="0%"></stop>
            <stop stop-color="#505050" offset="100%"></stop>
        </linearGradient>
    </defs>
    <g id="Arq-Gabriela-Rojas" stroke="none" stroke-width="1" fill="none" fill-rule="evenodd">
        <g id="Desktop-HD-Copy" transform="translate(-47.000000, -6.000000)">
            <g id="Portada-1" transform="translate(-232.000000, -830.000000)">
                <g id="Header" transform="translate(194.000000, 0.000000)">
                    <g id="logo" filter="url(#filter-1)" transform="translate(90.000000, 839.000000)">
                        <g id="Group-9" transform="translate(160.000000, 21.000000)">
                            <path d="M1.06145067,84.545633 L0,84.545633 L4.35348606,72.6751717 C4.52270284,72.18842 4.78421967,72 5.10726987,72 C5.43032007,72 5.6918369,72.18842 5.86105368,72.6751717 L10.1837731,84.545633 L9.12232239,84.545633 L7.93780498,81.3895976 L2.24596808,81.3895976 L1.06145067,84.545633 Z M7.61475478,80.4003925 L5.09188653,73.6486752 L2.56901828,80.4003925 L7.61475478,80.4003925 Z M12.0143909,77.9195289 C12.0143909,76.7733072 12.6604913,76.4121688 13.7373253,76.4121688 L14.398809,76.4121688 L14.398809,75.4386654 L13.4911918,75.4386654 C12.0297742,75.4386654 11.0298569,76.0981354 11.0298569,77.6997056 L11.0298569,84.545633 L12.0143909,84.545633 L12.0143909,77.9195289 Z M21.7366636,84.545633 L17.6293111,84.545633 C16.1678935,84.545633 15.1679762,83.9175662 15.1679762,82.3159961 L15.1679762,77.6997056 C15.1679762,76.0981354 16.1678935,75.4386654 17.6293111,75.4386654 L20.2598627,75.4386654 C21.7212803,75.4386654 22.7211976,76.0981354 22.7211976,77.6997056 L22.7211976,88 L21.7366636,88 L21.7366636,84.545633 Z M21.7366636,83.5878312 L21.7366636,77.9195289 C21.7366636,76.7733072 21.0751799,76.3964671 20.0137292,76.3964671 L17.8446779,76.3964671 C16.8139939,76.3964671 16.1525101,76.7733072 16.1525101,77.9195289 L16.1525101,82.0647694 C16.1525101,83.2894995 16.8755273,83.5878312 17.9369779,83.5878312 L21.7366636,83.5878312 Z M25.3978993,75.4386654 L24.4133653,75.4386654 L24.4133653,82.2845927 C24.4133653,83.8861629 25.4132826,84.545633 26.8747002,84.545633 L29.5821686,84.545633 C31.0435861,84.545633 32.0435034,83.8861629 32.0435034,82.2845927 L32.0435034,75.4386654 L31.0589695,75.4386654 L31.0589695,82.0647694 C31.0589695,83.2266928 30.3974857,83.5878312 29.3668018,83.5878312 L27.1208337,83.5878312 C26.0439997,83.5878312 25.3978993,83.2266928 25.3978993,82.0647694 L25.3978993,75.4386654 Z M34.8894219,75.4386654 L33.9048879,75.4386654 L33.9048879,84.545633 L34.8894219,84.545633 L34.8894219,75.4386654 Z M33.8125879,74.1668302 C33.8125879,74.4965653 34.0741047,74.7634936 34.3971549,74.7634936 C34.7202051,74.7634936 34.9817219,74.4965653 34.9817219,74.1668302 C34.9817219,73.8370952 34.7202051,73.5701668 34.3971549,73.5701668 C34.0741047,73.5701668 33.8125879,73.8370952 33.8125879,74.1668302 Z M36.8277231,72.2983317 L36.8277231,84.545633 L37.8122571,84.545633 L37.8122571,76.3964671 L40.2735919,76.3964671 L40.2735919,75.4386654 L37.8122571,75.4386654 L37.8122571,72.2983317 L36.8277231,72.2983317 Z M48.6113638,83.5878312 L48.6113638,84.545633 L43.4887106,84.545633 C42.027293,84.545633 41.0427591,83.8861629 41.0427591,82.2688911 L41.0427591,77.6683023 C41.0427591,76.0667321 42.0426764,75.4386654 43.504094,75.4386654 L46.2577123,75.4386654 C47.7191299,75.4386654 48.7036639,76.0824338 48.7036639,77.6840039 L48.7036639,78.8459274 L42.0426764,81.5466143 C42.0426764,83.1638862 42.3964933,83.5878312 43.8117608,83.5878312 L48.6113638,83.5878312 Z M42.027293,77.966634 L42.027293,80.5417076 L47.7037466,78.2335623 L47.7037466,77.8253189 C47.7037466,76.7262022 47.1345629,76.4121688 45.9500455,76.4121688 L43.7809941,76.4121688 C42.6118601,76.4121688 42.027293,76.8204122 42.027293,77.966634 Z M56.2415019,84.545633 L56.2415019,83.5878312 L52.7648664,83.5878312 C51.7187991,83.5878312 51.0726987,83.2266928 51.0726987,82.0647694 L51.0726987,77.9195289 C51.0726987,76.7733072 51.7187991,76.4121688 52.7648664,76.4121688 L56.2415019,76.4121688 L56.2415019,75.4386654 L52.5494996,75.4386654 C51.088082,75.4386654 50.0881648,76.0667321 50.0881648,77.6683023 L50.0881648,82.2845927 C50.0881648,83.8861629 51.088082,84.545633 52.5494996,84.545633 L56.2415019,84.545633 Z M57.6260028,72.2983317 L57.6260028,84.545633 L58.6105368,84.545633 L58.6105368,76.3964671 L61.0718716,76.3964671 L61.0718716,75.4386654 L58.6105368,75.4386654 L58.6105368,72.2983317 L57.6260028,72.2983317 Z M62.9024895,75.4386654 L61.9179555,75.4386654 L61.9179555,82.2845927 C61.9179555,83.8861629 62.9178728,84.545633 64.3792904,84.545633 L67.0867587,84.545633 C68.5481763,84.545633 69.5480936,83.8861629 69.5480936,82.2845927 L69.5480936,75.4386654 L68.5635597,75.4386654 L68.5635597,82.0647694 C68.5635597,83.2266928 67.9020759,83.5878312 66.8713919,83.5878312 L64.6254239,83.5878312 C63.5485899,83.5878312 62.9024895,83.2266928 62.9024895,82.0647694 L62.9024895,75.4386654 Z M72.2247953,77.9195289 C72.2247953,76.7733072 72.8708957,76.4121688 73.9477297,76.4121688 L74.6092135,76.4121688 L74.6092135,75.4386654 L73.7015962,75.4386654 C72.2401786,75.4386654 71.2402614,76.0981354 71.2402614,77.6997056 L71.2402614,84.545633 L72.2247953,84.545633 L72.2247953,77.9195289 Z M77.6858821,84.545633 C76.2244645,84.545633 75.2245472,83.8861629 75.2245472,82.2845927 L75.2245472,80.7615309 C75.2245472,79.1599607 76.2244645,78.531894 77.6858821,78.531894 L81.9163014,78.531894 L81.9163014,77.9195289 C81.9163014,76.7576055 81.270201,76.3964671 80.2241337,76.3964671 L75.3014639,76.3964671 L75.3014639,75.4386654 L80.4395005,75.4386654 C81.900918,75.4386654 82.9008353,76.0667321 82.9008353,77.6683023 L82.9008353,82.2845927 C82.9008353,83.8861629 81.900918,84.545633 80.4395005,84.545633 L77.6858821,84.545633 Z M80.2241337,83.5878312 C81.5624845,83.5878312 81.9163014,83.1010795 81.9163014,81.468106 L81.9163014,79.5053974 L77.9012489,79.5053974 C76.9013316,79.5053974 76.2090811,79.8194308 76.2090811,80.9342493 L76.2090811,81.9705594 C76.2090811,83.2109912 76.7167315,83.5878312 77.9012489,83.5878312 L80.2241337,83.5878312 Z M88.3157721,80.2904809 L92.6231081,80.2904809 L92.6231081,79.2541708 L88.3157721,79.2541708 L88.3157721,80.2904809 Z M106.1143,73.3346418 L106.1143,72.2983317 L100.63783,72.2983317 C99.1610289,72.2983317 98.1918783,72.9735034 98.1918783,74.5750736 L98.1918783,82.3002944 C98.1918783,83.9018646 99.1610289,84.545633 100.63783,84.545633 L106.1143,84.545633 L106.1143,83.5093229 L100.91473,83.5093229 C99.8686626,83.5093229 99.2379456,83.1324828 99.2379456,81.9705594 L99.2379456,74.8734053 C99.2379456,73.7271835 99.8686626,73.3346418 100.91473,73.3346418 L106.1143,73.3346418 Z M115.205856,77.6683023 L115.205856,82.3002944 C115.205856,83.9018646 114.205938,84.545633 112.744521,84.545633 L109.960136,84.545633 C108.498718,84.545633 107.498801,83.8861629 107.498801,82.2845927 L107.498801,77.6840039 C107.498801,76.0824338 108.498718,75.4386654 109.960136,75.4386654 L112.744521,75.4386654 C114.205938,75.4386654 115.205856,76.0667321 115.205856,77.6683023 Z M108.483335,77.9195289 L108.483335,82.0647694 C108.483335,83.2266928 109.144818,83.5878312 110.206269,83.5878312 L112.406087,83.5878312 C113.482921,83.5878312 114.221322,83.2894995 114.221322,82.0647694 L114.221322,77.9195289 C114.221322,76.6947988 113.482921,76.4121688 112.406087,76.4121688 L110.206269,76.4121688 C109.144818,76.4121688 108.483335,76.7733072 108.483335,77.9195289 Z M123.312877,84.545633 L124.297411,84.545633 L124.297411,77.6683023 C124.297411,76.0667321 123.297494,75.4386654 121.836076,75.4386654 L119.128608,75.4386654 C117.66719,75.4386654 116.667273,76.0667321 116.667273,77.6683023 L116.667273,84.545633 L117.651807,84.545633 L117.651807,77.9195289 C117.651807,76.7733072 118.297908,76.4121688 119.343975,76.4121688 L121.589943,76.4121688 C122.651394,76.4121688 123.312877,76.7733072 123.312877,77.9195289 L123.312877,84.545633 Z M131.296832,82.1118744 C131.281449,83.2580962 130.681499,83.5721295 129.620048,83.5721295 L125.528079,83.5721295 L125.528079,84.545633 L129.820031,84.545633 C131.281449,84.545633 132.281366,83.9332679 132.281366,82.3316977 L132.281366,81.703631 C132.281366,80.0549558 131.281449,79.3326791 129.820031,79.3326791 L128.11248,79.3326791 C127.09718,79.3326791 126.435696,79.0029441 126.435696,77.9195289 C126.435696,76.7419038 127.035646,76.4121688 128.11248,76.4121688 L132.20445,76.4121688 L132.20445,75.4386654 L127.912497,75.4386654 C126.451079,75.4386654 125.451162,76.0510304 125.451162,77.6526006 L125.451162,77.9195289 C125.451162,79.5682041 126.451079,80.2904809 127.912497,80.2904809 L129.620048,80.2904809 C130.635349,80.2904809 131.296832,80.6202159 131.296832,81.703631 L131.296832,82.1118744 Z M133.665867,72.2983317 L133.665867,84.545633 L134.650401,84.545633 L134.650401,76.3964671 L137.111736,76.3964671 L137.111736,75.4386654 L134.650401,75.4386654 L134.650401,72.2983317 L133.665867,72.2983317 Z M138.942354,77.9195289 C138.942354,76.7733072 139.588454,76.4121688 140.665288,76.4121688 L141.326772,76.4121688 L141.326772,75.4386654 L140.419155,75.4386654 C138.957737,75.4386654 137.95782,76.0981354 137.95782,77.6997056 L137.95782,84.545633 L138.942354,84.545633 L138.942354,77.9195289 Z M143.15739,75.4386654 L142.172856,75.4386654 L142.172856,82.2845927 C142.172856,83.8861629 143.172773,84.545633 144.634191,84.545633 L147.341659,84.545633 C148.803077,84.545633 149.802994,83.8861629 149.802994,82.2845927 L149.802994,75.4386654 L148.81846,75.4386654 L148.81846,82.0647694 C148.81846,83.2266928 148.156976,83.5878312 147.126292,83.5878312 L144.880324,83.5878312 C143.80349,83.5878312 143.15739,83.2266928 143.15739,82.0647694 L143.15739,75.4386654 Z M157.571582,84.545633 L157.571582,83.5878312 L154.094947,83.5878312 C153.048879,83.5878312 152.402779,83.2266928 152.402779,82.0647694 L152.402779,77.9195289 C152.402779,76.7733072 153.048879,76.4121688 154.094947,76.4121688 L157.571582,76.4121688 L157.571582,75.4386654 L153.87958,75.4386654 C152.418162,75.4386654 151.418245,76.0667321 151.418245,77.6683023 L151.418245,82.2845927 C151.418245,83.8861629 152.418162,84.545633 153.87958,84.545633 L157.571582,84.545633 Z M164.955587,84.545633 L164.955587,83.5878312 L161.478951,83.5878312 C160.432884,83.5878312 159.786784,83.2266928 159.786784,82.0647694 L159.786784,77.9195289 C159.786784,76.7733072 160.432884,76.4121688 161.478951,76.4121688 L164.955587,76.4121688 L164.955587,75.4386654 L161.263584,75.4386654 C159.802167,75.4386654 158.80225,76.0667321 158.80225,77.6683023 L158.80225,82.2845927 C158.80225,83.8861629 159.802167,84.545633 161.263584,84.545633 L164.955587,84.545633 Z M167.416922,75.4386654 L166.432388,75.4386654 L166.432388,84.545633 L167.416922,84.545633 L167.416922,75.4386654 Z M166.340088,74.1668302 C166.340088,74.4965653 166.601604,74.7634936 166.924655,74.7634936 C167.247705,74.7634936 167.509222,74.4965653 167.509222,74.1668302 C167.509222,73.8370952 167.247705,73.5701668 166.924655,73.5701668 C166.601604,73.5701668 166.340088,73.8370952 166.340088,74.1668302 Z M176.908444,77.6683023 L176.908444,82.3002944 C176.908444,83.9018646 175.908527,84.545633 174.447109,84.545633 L171.662724,84.545633 C170.201307,84.545633 169.201389,83.8861629 169.201389,82.2845927 L169.201389,77.6840039 C169.201389,76.0824338 170.201307,75.4386654 171.662724,75.4386654 L174.447109,75.4386654 C175.908527,75.4386654 176.908444,76.0667321 176.908444,77.6683023 Z M170.185923,77.9195289 L170.185923,82.0647694 C170.185923,83.2266928 170.847407,83.5878312 171.908858,83.5878312 L174.108676,83.5878312 C175.18551,83.5878312 175.92391,83.2894995 175.92391,82.0647694 L175.92391,77.9195289 C175.92391,76.6947988 175.18551,76.4121688 174.108676,76.4121688 L171.908858,76.4121688 C170.847407,76.4121688 170.185923,76.7733072 170.185923,77.9195289 Z M185.015466,84.545633 L186,84.545633 L186,77.6683023 C186,76.0667321 185.000083,75.4386654 183.538665,75.4386654 L180.831197,75.4386654 C179.369779,75.4386654 178.369862,76.0667321 178.369862,77.6683023 L178.369862,84.545633 L179.354396,84.545633 L179.354396,77.9195289 C179.354396,76.7733072 180.000496,76.4121688 181.046564,76.4121688 L183.292532,76.4121688 C184.353982,76.4121688 185.015466,76.7733072 185.015466,77.9195289 L185.015466,84.545633 Z" id="Arquitectura---Const" fill="url(#linearGradient-2)"></path>
                            <path d="M66.6653657,102.504 C65.648521,102.504 64.9860312,102.152 64.9860312,101.032 L64.9860312,94.2 L64,94.2 L64,101.208 C64,102.84 65.001438,103.48 66.4650781,103.48 L70.6094906,103.48 L70.6094906,104.472 C70.6094906,105.656 69.9624076,106.024 68.9147494,106.024 L64.0924404,106.024 L64.0924404,107 L69.1458505,107 C70.6094906,107 71.6109285,106.36 71.6109285,104.728 L71.6109285,94.2 L70.6094906,94.2 L70.6094906,102.504 L66.6653657,102.504 Z M80.5314297,96.552 C79.4837716,96.552 78.8520953,96.168 78.8520953,95 L78.8520953,93.624 C78.8520953,92.456 79.4837716,92.056 80.5314297,92.056 L85.6926869,92.056 L85.6926869,91 L80.2541085,91 C78.7750616,91 77.8044371,91.656 77.8044371,93.288 L77.8044371,95.304 C77.8044371,96.936 78.7750616,97.624 80.2541085,97.624 L83.042728,97.624 C84.0903862,97.624 84.7066557,98.008 84.7066557,99.176 L84.7066557,100.856 C84.7066557,102.04 84.0903862,102.424 83.042728,102.424 L77.8814708,102.424 L77.8814708,103.48 L83.3200493,103.48 C84.7836894,103.48 85.7697206,102.824 85.7697206,101.192 L85.7697206,98.872 C85.7697206,97.256 84.7836894,96.552 83.3200493,96.552 L80.5314297,96.552 Z M94.8905094,102.504 L94.8905094,103.48 L89.7600657,103.48 C88.2964256,103.48 87.3103944,102.808 87.3103944,101.16 L87.3103944,96.472 C87.3103944,94.84 88.3118324,94.2 89.7754725,94.2 L92.5332786,94.2 C93.9969187,94.2 94.9829499,94.856 94.9829499,96.488 L94.9829499,97.672 L88.3118324,100.424 C88.3118324,102.072 88.6661873,102.504 90.0836072,102.504 L94.8905094,102.504 Z M88.2964256,96.776 L88.2964256,99.4 L93.9815119,97.048 L93.9815119,96.632 C93.9815119,95.512 93.4114626,95.192 92.2251438,95.192 L90.0527938,95.192 C88.8818817,95.192 88.2964256,95.608 88.2964256,96.776 Z M97.4326212,96.728 C97.4326212,95.56 98.0797042,95.192 99.1581758,95.192 L99.8206656,95.192 L99.8206656,94.2 L98.911668,94.2 C97.4480279,94.2 96.44659,94.872 96.44659,96.504 L96.44659,103.48 L97.4326212,103.48 L97.4326212,96.728 Z M109.003081,94.2 L107.940016,94.2 L104.411873,102.2 L100.899137,94.2 L99.8206656,94.2 L103.749384,103.208 C103.888044,103.528 104.103739,103.656 104.411873,103.656 C104.735415,103.656 104.935703,103.528 105.074363,103.208 L109.003081,94.2 Z M111.005957,94.2 L110.019926,94.2 L110.019926,103.48 L111.005957,103.48 L111.005957,94.2 Z M109.927486,92.904 C109.927486,93.24 110.1894,93.512 110.512942,93.512 C110.836483,93.512 111.098398,93.24 111.098398,92.904 C111.098398,92.568 110.836483,92.296 110.512942,92.296 C110.1894,92.296 109.927486,92.568 109.927486,92.904 Z M118.955834,103.48 L118.955834,102.504 L115.473911,102.504 C114.426253,102.504 113.77917,102.136 113.77917,100.952 L113.77917,96.728 C113.77917,95.56 114.426253,95.192 115.473911,95.192 L118.955834,95.192 L118.955834,94.2 L115.258217,94.2 C113.794577,94.2 112.793139,94.84 112.793139,96.472 L112.793139,101.176 C112.793139,102.808 113.794577,103.48 115.258217,103.48 L118.955834,103.48 Z M121.420912,94.2 L120.434881,94.2 L120.434881,103.48 L121.420912,103.48 L121.420912,94.2 Z M120.34244,92.904 C120.34244,93.24 120.604355,93.512 120.927896,93.512 C121.251438,93.512 121.513353,93.24 121.513353,92.904 C121.513353,92.568 121.251438,92.296 120.927896,92.296 C120.604355,92.296 120.34244,92.568 120.34244,92.904 Z M130.926869,96.472 L130.926869,101.192 C130.926869,102.824 129.925431,103.48 128.461791,103.48 L125.673172,103.48 C124.209532,103.48 123.208094,102.808 123.208094,101.176 L123.208094,96.488 C123.208094,94.856 124.209532,94.2 125.673172,94.2 L128.461791,94.2 C129.925431,94.2 130.926869,94.84 130.926869,96.472 Z M124.194125,96.728 L124.194125,100.952 C124.194125,102.136 124.856615,102.504 125.91968,102.504 L128.122843,102.504 C129.201315,102.504 129.940838,102.2 129.940838,100.952 L129.940838,96.728 C129.940838,95.48 129.201315,95.192 128.122843,95.192 L125.91968,95.192 C124.856615,95.192 124.194125,95.56 124.194125,96.728 Z M138.013969,101 C137.998562,102.168 137.397699,102.488 136.334634,102.488 L132.236442,102.488 L132.236442,103.48 L136.534922,103.48 C137.998562,103.48 139,102.856 139,101.224 L139,100.584 C139,98.904 137.998562,98.168 136.534922,98.168 L134.824774,98.168 C133.807929,98.168 133.14544,97.832 133.14544,96.728 C133.14544,95.528 133.746302,95.192 134.824774,95.192 L138.922966,95.192 L138.922966,94.2 L134.624486,94.2 C133.160846,94.2 132.159408,94.824 132.159408,96.456 L132.159408,96.728 C132.159408,98.408 133.160846,99.144 134.624486,99.144 L136.334634,99.144 C137.351479,99.144 138.013969,99.48 138.013969,100.584 L138.013969,101 Z" id="y-Servicios" fill="url(#linearGradient-2)"></path>
                            <path d="M18.5983232,8.3836326 C16.2522866,8.3836326 14.9832317,9.50552486 14.9832317,12.0839088 L14.9832317,29.863605 C14.9832317,32.5404006 16.2591463,33.6163674 18.5983232,33.6163674 L35,33.6163674 L35,40 L16.3551829,40 C11.4641768,40 8,37.6643646 8,32.7831492 L8,9.50552486 C8,4.63087017 11.429878,2 16.3551829,2 L35,2 L35,8.3836326 L18.5983232,8.3836326 Z" id="Shape" fill="url(#linearGradient-3)" fill-rule="nonzero"></path>
                            <path d="M37,40 L49.3594397,4.31605777 C50.4849083,1.08751062 52.4320379,0 54.5655948,0 C56.6991517,0 58.8741369,1.06032285 59.9512724,4.28887001 L72,39.9728122 L64.7362399,39.9728122 L61.8638785,32.1019541 L47.149931,32.1019541 L44.2775695,39.9728122 L37,40 Z M54.5655948,10.4265081 L49.1799171,25.5157179 L59.8960347,25.5157179 L54.5655948,10.4265081 Z" id="Shape" fill="url(#linearGradient-3)" fill-rule="nonzero"></path>
                            <path d="M115.766497,25.2182163 C115.326227,24.8048383 114.974897,24.3076185 114.733613,23.7564257 L114.733613,39.9672244 L108,39.9672244 L108,2 L128.896049,2 C133.663209,2 136.960494,4.62204589 136.960494,9.49905123 L136.960494,17.3651889 C136.960494,22.8649301 135.093357,25.6901846 127.691017,25.6901846 L124.38049,25.6901846 L138,40 L129.730302,40 L115.766497,25.2182163 Z M114.733613,20.6886321 C115.503625,19.6992867 116.718655,19.1518315 117.97793,19.2268415 L126.730964,19.2268415 C128.995365,19.2268415 130.273229,18.1059169 130.273229,15.5297568 L130.273229,12.0752113 C130.273229,9.49249612 128.995365,8.37812662 126.730964,8.37812662 L114.733613,8.37812662 L114.733613,20.6886321 Z" id="Shape" fill="url(#linearGradient-3)" fill-rule="nonzero"></path>
                            <path d="M174,32.7781617 C174,37.6561852 170.684957,40 165.924554,40 L153.075446,40 C148.348194,40 145,37.373877 145,32.4892882 L145,9.51071182 C145,4.63268832 148.315043,2 153.075446,2 L165.924554,2 C170.698217,2 174,4.62612301 174,9.51071182 L174,32.7781617 Z M151.749428,29.8500346 C151.749428,32.52868 152.982625,33.6053905 155.541838,33.6053905 L163.763146,33.6053905 C166.030636,33.6053905 167.310242,32.5352453 167.310242,29.8500346 L167.310242,12.0580511 C167.310242,9.47131997 166.030636,8.35521769 163.763146,8.35521769 L155.515318,8.35521769 C152.956104,8.35521769 151.722908,9.47788528 151.722908,12.0580511 L151.749428,29.8500346 Z" id="Shape" fill="url(#linearGradient-3)" fill-rule="nonzero"></path>
                            <path d="M84.783946,0 L89.1522881,0 C93.3990998,0 95.3300825,2.44407827 95.3300825,6.84201854 L95.3300825,8.45272915 C95.3300825,14.6434604 92.0082521,15.2527291 87.3023256,17.5217302 L97.3083271,27.984346 C97.4945207,27.3170413 97.5944194,26.6270368 97.6054014,25.9324408 L97.6054014,18.3060762 L100.306077,18.3060762 L100.306077,23.5794027 C100.306077,26.1495366 100.218305,28.7686921 99.5093773,30.2953656 L103,34 L99.4418605,34 L97.8417104,32.3402678 C96.3698425,33.9509784 94.2700675,34 91.1980495,34 L82.1372843,34 C77.8904726,34 76,31.4718847 76,27.2420185 L76,24.8469619 C76,19.8747683 78.6061515,18.8733265 83.0217554,16.9124614 L82.6436609,16.5202884 C80.3750938,14.1672503 78.5926482,12.3184346 78.5926482,8.11658084 C78.6061515,3.04634398 79.9497374,0 84.783946,0 Z M82.0090023,20.1408857 C79.9092273,21.184346 78.855964,21.8006179 78.855964,24.8469619 C78.855964,28.7686921 79.0652663,31.345829 82.7246812,31.345829 L91.8867217,31.345829 C93.6556639,31.345829 94.9992498,31.0376931 95.7554389,30.16931 L84.8649662,18.7402678 L82.0090023,20.1408857 Z M85.3308327,2.78722966 C82.0090023,2.78722966 81.3810953,4.44696189 81.3810953,8.19361483 C81.3810953,12.2484037 83.1905476,13.207827 85.432108,15.6449022 L90.5633908,13.1167868 C92.2850713,12.2484037 92.5416354,10.63069 92.5416354,8.10257467 C92.5416354,4.22286303 92.0757689,2.78022657 88.6324081,2.78022657 L85.3308327,2.78722966 Z" id="Shape" fill="url(#radialGradient-4)" fill-rule="nonzero"></path>
                            <polygon id="Shape" fill="url(#linearGradient-5)" fill-rule="nonzero" points="3 55 184 55 180.448056 50 7.43992959 50"></polygon>
                            <polygon id="Shape" fill="url(#linearGradient-3)" fill-rule="nonzero" points="184 63 180.448056 58 7.43992959 58 3 63"></polygon>
                        </g>
                        <circle id="Oval" fill="url(#radialGradient-6)" fill-rule="nonzero" cx="78.5" cy="64.5" r="30.5"></circle>
                        <path d="M78,66 L78,67" id="Shape" stroke="#2E2E2E" stroke-width="1.5"></path>
                        <path d="M78,70 L78,142" id="Shape" stroke="#2E2E2E" stroke-dasharray="3"></path>
                        <path d="M78,143 L78,144" id="Shape" stroke="#2E2E2E" stroke-dasharray="3"></path>
                        <path d="M80,69 L131,120" id="Shape" stroke="#2E2E2E" stroke-dasharray="3"></path>
                        <path d="M132,120 L133,121" id="Shape" stroke="#2E2E2E" stroke-dasharray="3"></path>
                        <path d="M79,114.937569 C52.9674246,114.935658 31.3155388,95.3649017 29.2838273,70 C25.8234978,84.7950686 29.4428853,100.325049 39.1179499,112.196013 C48.7930144,124.066978 63.4713546,130.987668 79,131 L79,114.937569 Z" id="Shape" fill="url(#linearGradient-3)" fill-rule="nonzero"></path>
                        <path d="M115,32.3371597 C133.018866,50.6310442 133.890615,79.6644547 117.001598,99 C130.066675,90.9859601 138.761463,77.4783445 140.625856,62.2990015 C142.490249,47.1196586 137.321442,31.9197714 126.581898,21 L115,32.3371597 Z" id="Shape" fill="url(#radialGradient-7)" fill-rule="nonzero" transform="translate(128.000000, 60.000000) rotate(2.000000) translate(-128.000000, -60.000000) "></path>
                        <path d="M32.8933838,112.457221 C20.8338664,100.515537 13.4373054,84.3938398 13.4373054,66.6553046 C13.4373054,31.9123888 41.4364331,1.1118412 78,0.284325804 C75.9123645,0.101848049 73.8033393,0 71.6729244,0 C32.0848528,0 0.000290800848,32.4513347 0.000290800848,72.4861054 C-0.0543319993,91.7691845 7.58810796,110.289679 21.2573826,124 L32.8933838,112.457221 Z" id="Shape" fill="url(#linearGradient-8)" fill-rule="nonzero"></path>
                        <circle id="Oval-Copy" stroke="#2E2E2E" stroke-dasharray="3" fill-rule="nonzero" cx="78.5" cy="64.5" r="49.5"></circle>
                    </g>
                </g>
            </g>
        </g>
    </g>
</svg>